<svg xmlns="http://www.w3.org/2000/svg" width="554" height="503.307" viewBox="0 0 554 503.307">
  <g id="Group_479" data-name="Group 479" transform="translate(0 0)">
    <path id="Path_17" data-name="Path 17" d="M1256.285-2378.364a8.271,8.271,0,0,1-5.534,7.805c-1.636.141-3.192.216-4.623.246a8.271,8.271,0,0,1-6.379-8.051,8.284,8.284,0,0,1,.224-1.917c4.318-1.2,10.222-2.038,15.982-.4A8.258,8.258,0,0,1,1256.285-2378.364Z" transform="translate(-931.214 2537.269)" fill="#fff"/>
    <path id="Path_18" data-name="Path 18" d="M-1121.315-2412.782a8.269,8.269,0,0,1-6.939,8.162c-1.155-.041-2.378-.112-3.65-.224a8.272,8.272,0,0,1-5.946-7.938,8.343,8.343,0,0,1,.14-1.522,33.617,33.617,0,0,1,16.317.377A8.314,8.314,0,0,1-1121.315-2412.782Z" transform="translate(1362.385 2569.628)" fill="#fff"/>
    <path id="Path_15" data-name="Path 15" d="M975.855-2375.491a20.9,20.9,0,0,0-8.968-5.193c-5.76-1.638-11.664-.8-15.982.4a36.676,36.676,0,0,0-5.451,1.965q-1.54.711-3.123,1.325l-2.236.868" transform="translate(-642.128 2537.255)" fill="none" stroke="#fff" stroke-linecap="round" stroke-miterlimit="10" stroke-width="2"/>
    <path id="Path_16" data-name="Path 16" d="M-1412.965-2410.134a31.989,31.989,0,0,1,9.86-4.173,33.623,33.623,0,0,1,16.317.377,29.4,29.4,0,0,1,6.444,2.487q.812.46,1.65.878l3.664,1.833" transform="translate(1627.798 2569.614)" fill="none" stroke="#fff" stroke-linecap="round" stroke-miterlimit="10" stroke-width="2"/>
    <path id="Path_19" data-name="Path 19" d="M1011.906-2534.329l3.9-1.924s16.236-8.334,29.326,1.924" transform="translate(-711.402 2689.529)" fill="none" stroke="#fff" stroke-linecap="round" stroke-miterlimit="10" stroke-width="2"/>
    <path id="Path_20" data-name="Path 20" d="M-1313.061-2593.753l-3.9-1.924s-16.237-8.334-29.326,1.924" transform="translate(1563.473 2746.854)" fill="none" stroke="#fff" stroke-linecap="round" stroke-miterlimit="10" stroke-width="2"/>
    <path id="Path_21" data-name="Path 21" d="M613.8-2689.023s-2.056-10.162,2.706-12.327c0,0,11.474-5.3,40.051-2.274,0,0,15.479,1.575,15.587,10.476l-.846,8.578a9.719,9.719,0,0,1-2.136,5.211,8.7,8.7,0,0,1-2.763,2.255,8.286,8.286,0,0,1-2.747.834c-4.37.549-31.813,3.757-42.867-.689a8.7,8.7,0,0,1-4.721-4.6A35.923,35.923,0,0,1,613.8-2689.023Z" transform="translate(-326.939 2848.808)" fill="none" stroke="#fff" stroke-linecap="round" stroke-miterlimit="10" stroke-width="2"/>
    <path id="Path_22" data-name="Path 22" d="M-1623.839-2828.619s6.278,2.018,6.495,7.1a52.709,52.709,0,0,1-2.273,11.474s-1.407,5.738-6.6,6.711c0,0-22.487,4.042-44.532-3.626a6.92,6.92,0,0,1-4.339-4.464,26.8,26.8,0,0,1-1.03-6.975s-.866-12.862,5.629-14.053A124.721,124.721,0,0,1-1623.839-2828.619Z" transform="translate(1881.694 2972.869)" fill="none" stroke="#fff" stroke-linecap="round" stroke-miterlimit="10" stroke-width="2"/>
    <path id="Path_23" data-name="Path 23" d="M-11.413-2518.129a78.3,78.3,0,0,1,22.073.541" transform="translate(275.763 2669.483)" fill="none" stroke="#fff" stroke-miterlimit="10" stroke-width="2"/>
    <path id="Path_24" data-name="Path 24" d="M-1546.071-3255.377s-.837-6.9-4.289-7.475a5.674,5.674,0,0,1,1.779,3.737,9.122,9.122,0,0,0-6.172-4.813l2.354,2.082s-1.611-2.223-17.34-3.211l2.827.883-5.808-.8,2.825,1.059s-19.144-5-21.89,5.433l-1.177,3.1,2.119-3.449-1.648,4.656s4-5.471,17.575-4.226l16.241,2.932-2.275-1.379,5.178,2.07,7.768.6-2.2-2.5,3.374,2.5-1.753-2.242,2,2.029a.3.3,0,0,0,.513-.248Z" transform="translate(1801.419 3389.576)" fill="#fff"/>
    <path id="Path_25" data-name="Path 25" d="M1109.063-3121.97s1.253-6.827,4.405-7.174a5.867,5.867,0,0,0-1.873,3.61,8.566,8.566,0,0,1,5.91-4.4l-2.271,1.922s1.612-2.111,15.856-2.069l-2.611.7,5.292-.418-2.622.871s17.612-3.738,19.331,6.851l.836,3.173-1.659-3.58,1.147,4.753s-3.21-5.72-15.53-5.364l-14.846,1.863,2.15-1.228-4.816,1.726-7.043.1,2.161-2.351-3.221,2.274,1.742-2.122-1.947,1.893c-.191.185-.466.013-.444-.28Z" transform="translate(-805.091 3259.311)" fill="#fff"/>
    <path id="Path_26" data-name="Path 26" d="M43.276-5942.592s-4.709,6.655,0,12.988a12.356,12.356,0,0,1,1.461,8.119s-2.735,6.821.175,11.2a13.1,13.1,0,0,1,2.423,6.818s-2.228,6.5,3.027,8.605c0,0,3.089.429,3.924,3.026a3.222,3.222,0,0,0,1.216,1.677c.9.622,2.277.9,3.849-1.13" transform="translate(225.026 5972.441)" fill="none" stroke="#fff" stroke-linecap="round" stroke-miterlimit="10" stroke-width="2"/>
    <path id="Path_27" data-name="Path 27" d="M292.55-6066.678s4.243,1.1,1.891,10.6a4.482,4.482,0,0,1-.267.764c-.522,1.146-2.105,5.192-.324,8.773a11.047,11.047,0,0,1,.254,8.422,4.308,4.308,0,0,1-.531,1.038,6.009,6.009,0,0,0-.091,7.115,4.24,4.24,0,0,0,.654.717,11.193,11.193,0,0,1,2.993,4,4.319,4.319,0,0,1,.166,2.382c-.263,1.268-.6,4.951,3.364,7.989,0,0,4.649,3.846,3.159,9.738a4.372,4.372,0,0,1-.269.764,9.021,9.021,0,0,0-.779,5.411,7.019,7.019,0,0,1-.174,3.664,4.286,4.286,0,0,1-1.19,1.726c-1.068.943-5.465,5.188-3.629,9.637a4.292,4.292,0,0,0,.774,1.225,6.951,6.951,0,0,1,1.946,4.694s-.974,9.741,7.144,7.956" transform="translate(-17.259 6092.142)" fill="none" stroke="#fff" stroke-linecap="round" stroke-miterlimit="10" stroke-width="2"/>
    <path id="Path_28" data-name="Path 28" d="M325.608-6296.464s7.371.479,8.1,5.9a1.456,1.456,0,0,1,.012.209c-.006.878.051,7.228,2.806,10.011a1.49,1.49,0,0,0,.219.186c.864.6,6.922,5.046,5.916,10.753-.006.034-.013.069-.021.1-.119.49-1.1,4.869,1.525,7.637a1.67,1.67,0,0,0,.208.185c.742.548,5.408,4.27,3.312,9.509,0,0-1.334,3.815.478,6.254a1.9,1.9,0,0,1,.125.194c.368.684,2.037,4.315-.946,9.253-.017.029-.035.057-.054.083a11.138,11.138,0,0,0-1.9,6.317,1.582,1.582,0,0,0,.114.518c.354.862,1.5,4.175-.516,6.69a1.376,1.376,0,0,1-.129.139c-.472.453-3.344,3.373-3.044,6.857a1.542,1.542,0,0,0,.085.383,3.221,3.221,0,0,1-2.105,4.365c-.039.015-.079.028-.12.04-.571.163-5.425,1.685-2.4,5.9a1.355,1.355,0,0,0,.131.156c.384.4,2.312,2.707-.018,6.2-.028.042-.058.081-.09.121-.458.559-4.184,5.316.045,6.962" transform="translate(-49.351 6313.81)" fill="none" stroke="#fff" stroke-linecap="round" stroke-miterlimit="10" stroke-width="2"/>
    <path id="Path_29" data-name="Path 29" d="M562.169-5902.231s3.041,5.881.669,10.751c0,0-3.673,5.521-.669,8.932,0,0,4.365,3.572,1.574,7.956,0,0-2.2,4.871.67,6.819,0,0,4.82,2.6,2.385,7.469,0,0-.009.027-.023.077a5.894,5.894,0,0,0,2.152,6.353,10.01,10.01,0,0,1,4.277,7.551" transform="translate(-276.414 5933.506)" fill="none" stroke="#fff" stroke-linecap="round" stroke-miterlimit="10" stroke-width="2"/>
    <path id="Path_30" data-name="Path 30" d="M-1290.089-5367.786s-1.25,7.745-8.231,6.14c0,0-7.144-1.625-9.255,2.932a7.719,7.719,0,0,1-9.093,3.257,6.931,6.931,0,0,0-8.354,1.082s-1.226,4.925-9.182,3.626c0,0-6.17-2.239-8.443,2.616" transform="translate(1559.964 5417.943)" fill="none" stroke="#fff" stroke-linecap="round" stroke-miterlimit="10" stroke-width="2"/>
    <path id="Path_31" data-name="Path 31" d="M-291.809-5712.806a7.016,7.016,0,0,0-1.858,5.035s.541,4.381-3.843,4.221c0,0-.09,0-.248,0a5.48,5.48,0,0,0-5.471,6.03c.156,1.631.156,1.631-.776,3.935" transform="translate(558.017 5750.772)" fill="none" stroke="#fff" stroke-linecap="round" stroke-miterlimit="10" stroke-width="2"/>
    <path id="Path_32" data-name="Path 32" d="M967.7-4854.691s.7,6.377,5.892,8.327c0,0,7.631,1.876,6.495,6.132,0,0-2.111,3.445,2.111,6.37,0,0,4.917,2.274,2.377,8.605,0,0-2.169,3.733,0,7.306,0,0,3.306,4.222-1.565,8.281" transform="translate(-668.76 4922.975)" fill="none" stroke="#fff" stroke-linecap="round" stroke-miterlimit="10" stroke-width="2"/>
    <path id="Path_33" data-name="Path 33" d="M555.4-6168.4a8.379,8.379,0,0,1,8.281,5.032s1.693,6.657,6.286,6.657a4.79,4.79,0,0,1,5.891,4.384s.325,6.008,5.521,6.657c0,0,8.118-.974,7.469,7.957,0,0-1.461,6.008,1.948,9.092,0,0,4.384,2.435,2.923,8.931,0,0-2.488,5.519.3,8.6,0,0,4.248,2.631.514,7.973,0,0-3.41,4.531-1.624,9.241a6.158,6.158,0,0,1,.833,4.292,2.725,2.725,0,0,1-.875,1.338,3.843,3.843,0,0,0-1.257,4.111s1.568,6.99-4.737,5.442" transform="translate(-271.02 6190.289)" fill="none" stroke="#fff" stroke-linecap="round" stroke-miterlimit="10" stroke-width="2"/>
    <path id="Path_34" data-name="Path 34" d="M1118.375-5712.806s2.11,6.332,0,10.878a6.535,6.535,0,0,0,2.6,8.336s4.059,3.085,2.6,6.386c0,0-1.786,4.438,1.137,7.523,0,0,3.735,2.6,2.435,5.844l-2.632,6.694" transform="translate(-813.541 5750.772)" fill="none" stroke="#fff" stroke-linecap="round" stroke-miterlimit="10" stroke-width="2"/>
    <path id="Path_35" data-name="Path 35" d="M-2461.513-2632.6c-14.106-6.565-9.2,15.169-9.2,15.169l2.364,11.017s-.162,9.441,4.06,15.124l.01.02a9.454,9.454,0,0,1,1.051,5.31c-.352,3.75-.009,10.4,6.571,11.558" transform="translate(2648.974 2780.587)" fill="none" stroke="#fff" stroke-linecap="round" stroke-miterlimit="10" stroke-width="2"/>
    <g id="Group_250" data-name="Group 250" transform="translate(144.997 12.43)">
      <path id="Path_36" data-name="Path 36" d="M-1978.24-6221.753s-5.683-1.3-4.059-6.656c0,0,1.365-4.708-.292-8.281,0,0-2.273-6.168,2.176-8.93,0,0,4.773-.647,6.235-6.658,0,0-1.462-7.143,3.733-9.091a9.51,9.51,0,0,0,7.145-4.223s3.247-6.981,8.768-6.007c0,0,8.118.812,9.9-2.274,0,0,2.436-6.168,7.306-6.332a8.533,8.533,0,0,0,8.119-3.9s3.735-6.17,9.579-4.384c0,0,7.632,3.734,10.717-1.461,0,0,2.235-11.772,13.782-4.018" transform="translate(2032.844 6301.537)" fill="none" stroke="#fff" stroke-linecap="round" stroke-miterlimit="10" stroke-width="2"/>
      <path id="Path_37" data-name="Path 37" d="M-1145.03-5853.806s.649-3.41,5.845-2.274c0,0,4.384,1.463,7.469-3.409a4.277,4.277,0,0,1,5.521-2.11,4.119,4.119,0,0,0,4.871-3.41s.325-4.383,5.033-3.248c0,0,4.059,1.949,6.008-1.3,0,0,3.283-4.221,7.162-1.786" transform="translate(1224.314 5892.026)" fill="none" stroke="#fff" stroke-linecap="round" stroke-miterlimit="10" stroke-width="2"/>
      <path id="Path_38" data-name="Path 38" d="M-1838.988-5225.554s2.923-1.59,2.761-7.614c0,0-1.624-3.589.974-6.187,0,0,2.251-2.274,2.019-8.119,0,0-2.008-5.683,2.939-8.118a5.946,5.946,0,0,0,3.323-4.708s.649-5.04,6.82-5.281a5.046,5.046,0,0,0,3.263-1.038" transform="translate(1893.755 5307.937)" fill="none" stroke="#fff" stroke-linecap="round" stroke-miterlimit="10" stroke-width="2"/>
      <path id="Path_39" data-name="Path 39" d="M-1636.775-5702.229a5.315,5.315,0,0,0,3.572-5.557s-.649-5.809,3.247-7.432c0,0,3.9-1.949,3.572-7.469,0,0-.487-5.847,5.033-7.144,0,0,6.008.161,7.632-3.087,0,0,3.41-4.063,7.469-2.844,0,0,6.657.246,7.956-3.164,0,0,2.6-5.682,7.144-6.008,0,0,7.722-2.911,4.592-9.087" transform="translate(1698.686 5778.119)" fill="none" stroke="#fff" stroke-linecap="round" stroke-miterlimit="10" stroke-width="2"/>
      <path id="Path_40" data-name="Path 40" d="M-3153.371-4264.6s3.485,3.955,6.8-.607a3.857,3.857,0,0,0,.48-.889c.468-1.209,2.22-4.944,6.1-5.141.056,0,.111,0,.166,0a9.178,9.178,0,0,0,7.2-3.99,3.963,3.963,0,0,0,.49-.937,5.444,5.444,0,0,1,3.818-3.606,3.96,3.96,0,0,1,2.367.242,5.429,5.429,0,0,0,6.778-1.792,3.886,3.886,0,0,0,.357-.552c.59-1.1,3.187-5.54,6.794-6.251" transform="translate(3161.7 4364.013)" fill="none" stroke="#fff" stroke-linecap="round" stroke-miterlimit="10" stroke-width="2"/>
      <path id="Path_41" data-name="Path 41" d="M-3322.962-4729.316s-1.535,6.54-4.882,8.4a1.441,1.441,0,0,1-.181.081c-.766.281-6.162,2.389-7.216,5.992a5.416,5.416,0,0,1-6.17,3.613s-6.657-.22-8.443,5.3c0,0-2.273,6.282-6.656,4.767,0,0-7.794-.365-7.794,5.3a6.035,6.035,0,0,1-3.409,7.957s-7.632,3.767-2.6,10.326" transform="translate(3372.634 4789.617)" fill="none" stroke="#fff" stroke-linecap="round" stroke-miterlimit="10" stroke-width="2"/>
      <path id="Path_42" data-name="Path 42" d="M-2045.215-4204.613s3.915,3.479.993,7.327a7.823,7.823,0,0,0-1.948,7.909s.353,12.355-4.222,17.958" transform="translate(2097.69 4283.453)" fill="none" stroke="#fff" stroke-linecap="round" stroke-miterlimit="10" stroke-width="2"/>
      <path id="Path_43" data-name="Path 43" d="M-3067.258-3622.218s-2.9,4.231-.629,8.132c0,0,3.044,4.388.629,7.147,0,0-2.861,3.573-.283,5.845,0,0,2.74,3.6-3.106,6.752" transform="translate(3081.899 3721.634)" fill="none" stroke="#fff" stroke-linecap="round" stroke-miterlimit="10" stroke-width="2"/>
      <path id="Path_44" data-name="Path 44" d="M-2872.433-3938.847s-6.332,6.169-5.358,9.092c0,0,1.461,5.2-2.111,7.631,0,0-3.9,2.793-2.272,7.079,0,0,3.084,4.612.324,8.671,0,0-6.007,7.307,1.948,13.152" transform="translate(2901.871 4027.076)" fill="none" stroke="#fff" stroke-linecap="round" stroke-miterlimit="10" stroke-width="2"/>
      <path id="Path_45" data-name="Path 45" d="M-2751.063-3873.728s-4.61-1.975-2.874-5.312c0,0,3.745-1.854-.39-6.491,0,0-2.158-1.879.39-7.562,0,0,3.036-3.084,2.225-6.17,0,0-.488-5.357,1.949-6.332,0,0,5.357-.975,5.2-7.307,0,0,0-5.682,4.708-6.494,0,0,4.384.162,5.034-5.2,0,0-1.08-5.57,9.121-8.062" transform="translate(2777.577 4021.101)" fill="none" stroke="#fff" stroke-linecap="round" stroke-miterlimit="10" stroke-width="2"/>
      <path id="Path_46" data-name="Path 46" d="M-2767.328-4053.016a15.962,15.962,0,0,1,7.033-4.871s4.981-.649,5.469-4.872c0,0-.192-4.059,2.664-4.872,0,0,3.5-.657,4.721-6.905" transform="translate(2789.295 4157.971)" fill="none" stroke="#fff" stroke-linecap="round" stroke-miterlimit="10" stroke-width="2"/>
      <path id="Path_47" data-name="Path 47" d="M-2288.942-3662.934s-4.079,8.763-2.292,13.065a10.45,10.45,0,0,1-.453,8.849s-2.554,7.337.659,11.884" transform="translate(2331.388 3760.91)" fill="none" stroke="#fff" stroke-linecap="round" stroke-miterlimit="10" stroke-width="2"/>
      <path id="Path_48" data-name="Path 48" d="M-2567.26-3275.161s.646,5.4-1.411,8.756c0,0-2.273,4.438,0,6.061a4,4,0,0,1,.248,5.63s-5.976,6.78,1.164,9.939" transform="translate(2599.678 3386.839)" fill="none" stroke="#fff" stroke-linecap="round" stroke-miterlimit="10" stroke-width="2"/>
      <path id="Path_49" data-name="Path 49" d="M-3388.361-5201.509s-2.5-6.51,1.56-11.382a12.132,12.132,0,0,0,1.949-8.881s-1.462-6.218,5.2-4.6c0,0,3.572,1.948,7.145-1.785l2.76-3.9s3.41-6.26,10.067-4.672c0,0,7.306-1.174,6.657-7.833,0,0,.163-3.9,5.033-5.193,0,0,4.709-.651,6.17-5.035,0,0,1.277-10.364,13.223-11.839" transform="translate(3389.121 5307.939)" fill="none" stroke="#fff" stroke-linecap="round" stroke-miterlimit="10" stroke-width="2"/>
      <path id="Path_50" data-name="Path 50" d="M-2860.422-6430.732s-2.657-5.7-10.835-5.382a13.06,13.06,0,0,0-5.075,1.271,12.991,12.991,0,0,1-8.827.566s-5.762-2.435-9.944.163c0,0-1.079,2.271-5.714-.163,0,0-4.149-2.762-10,2.273,0,0-4.222,5.2-7.469,3.571a8.657,8.657,0,0,0-8.606,1.762,7.08,7.08,0,0,1-6.007,4.408,6.8,6.8,0,0,0-6.976,2.694,5.975,5.975,0,0,0-1.176,3.333c-.065,1.384-1.043,3.876-6.624,5.662,0,0-7.714.163-9.215,5.033,0,0-1.5,6.334-7.509,6.01,0,0-7.63-2.147-9.742,7.287" transform="translate(2988.799 6436.127)" fill="none" stroke="#fff" stroke-linecap="round" stroke-miterlimit="10" stroke-width="2"/>
      <path id="Path_51" data-name="Path 51" d="M-2799.5-6192.724a9.115,9.115,0,0,1,8.6-6s3.9.812,5.358-4.872c0,0-.011-6.426,7.061-6.333,0,0,2.519-.487,4.955-4.222,0,0,2.609-6.717,16.647-3.847" transform="translate(2820.33 6226.397)" fill="none" stroke="#fff" stroke-linecap="round" stroke-miterlimit="10" stroke-width="2"/>
      <path id="Path_52" data-name="Path 52" d="M-3263.856-5089.664s-4.6,3.872-2.161,8.3c0,0,2.274,3.13-1.461,6.377,0,0-3.1,3.847-1.933,7.136a3.665,3.665,0,0,0,.717,1.2c.618.7,1.987,2.8-.979,5.309,0,0-5.436,2.76-2.757,6.493" transform="translate(3277.268 5137.235)" fill="none" stroke="#fff" stroke-linecap="round" stroke-miterlimit="10" stroke-width="2"/>
      <path id="Path_53" data-name="Path 53" d="M-2780.764-6011.878a7.256,7.256,0,0,1-7.114.337s-5.381-2-7.4,4.6a8.6,8.6,0,0,1-7.666,4.979s-5.393.487-6.367,4.708c0,0-2.461,6.819-8.213,5.033,0,0-6.12-1.434-7.559,6.673,0,0-3.062,9.383-11.181,5.5" transform="translate(2855.797 6026.866)" fill="none" stroke="#fff" stroke-linecap="round" stroke-miterlimit="10" stroke-width="2"/>
      <path id="Path_54" data-name="Path 54" d="M-1144.592-6279.3s-1.9-4.864-7.907-3.241c0,0-5.358,2.747-9.9,1.455,0,0-7.306-3.091-12.665,1.786,0,0-5.358,3.241-9.255,0,0,0-4.285-1.473-7.5,3.325" transform="translate(1269.452 6288.288)" fill="none" stroke="#fff" stroke-linecap="round" stroke-miterlimit="10" stroke-width="2"/>
      <path id="Path_55" data-name="Path 55" d="M-3122.324-6158.4s1.014-5.721,6.859-6.206c0,0,8.605,0,10.554-6.008,0,0,3.055-6.982,10.3-8.12a7.5,7.5,0,0,0,5.312-3.8s2.253-7.892,6.15-7.892c0,0,5.845-1.3,7.469-3.735,0,0,2.923-6.17,8.281-5.845a5.923,5.923,0,0,0,6.332-4.328s1.461-5.914,6.819-5.909c0,0,8.424.333,9.895-3.239,0,0,1.958-4.385,5.53-3.249,0,0,3.685.325,5.658-2.436,0,0,2.893-5.222,11.769-4.072" transform="translate(3131.75 6230.913)" fill="none" stroke="#fff" stroke-linecap="round" stroke-miterlimit="10" stroke-width="2"/>
      <path id="Path_56" data-name="Path 56" d="M-3070.647-5157.136s5.521,5.52,10.716-2.924a19.245,19.245,0,0,1,6.852-8.874" transform="translate(3081.899 5213.704)" fill="none" stroke="#fff" stroke-linecap="round" stroke-miterlimit="10" stroke-width="2"/>
    </g>
    <path id="Path_57" data-name="Path 57" d="M294.743-6365.328s5.72-1.124,4.26-6.529c0,0-1.221-4.749.544-8.27,0,0,2.46-6.1-1.9-8.993,0,0-4.751-.793-6.029-6.843,0,0,1.679-7.1-3.455-9.2a9.509,9.509,0,0,1-7.012-4.436s-3.033-7.077-8.581-6.274c0,0-8.139.565-9.83-2.572,0,0-2.246-6.242-7.11-6.554a8.532,8.532,0,0,1-8-4.141,9.546,9.546,0,0,0-7.856-2.256,6.588,6.588,0,0,0-2.276.762c-2.252,1.229-8.841,4-9.977-4.968,0,0-4.251-12.531-16.811-3.593" transform="translate(61.484 6454.605)" fill="none" stroke="#fff" stroke-linecap="round" stroke-miterlimit="10" stroke-width="2"/>
    <path id="Path_58" data-name="Path 58" d="M756.263-5990.112" transform="translate(-464.791 6018.281)" fill="none" stroke="#fff" stroke-linecap="round" stroke-miterlimit="10" stroke-width="2"/>
    <path id="Path_59" data-name="Path 59" d="M1070.977-5786.659s-2.872-1.678-2.526-7.7c0,0,1.732-3.535-.785-6.213,0,0-2.181-2.34-1.77-8.177,0,0,2.18-5.618-2.691-8.205a5.939,5.939,0,0,1-3.178-4.807s-.5-5.056-6.655-5.484c0,0-3.583.3-5.554-4.31,0,0-.545-3.428-5.773-2.45,0,0-4.427,1.327-7.362-3.636a4.276,4.276,0,0,0-5.453-2.278,4.185,4.185,0,0,1-4.058-1.722,7.591,7.591,0,0,0-4.934-3.376,11.762,11.762,0,0,0-4.612,0" transform="translate(-714.993 5878.527)" fill="none" stroke="#fff" stroke-linecap="round" stroke-miterlimit="10" stroke-width="2"/>
    <path id="Path_60" data-name="Path 60" d="M2772.6-4341.74s-3.6,3.848-6.775-.815a3.9,3.9,0,0,1-.453-.9c-.431-1.223-2.068-5.008-5.938-5.324-.054,0-.11-.007-.165-.007A9.2,9.2,0,0,1,2752.2-4353a3.966,3.966,0,0,1-.463-.952,5.446,5.446,0,0,0-3.706-3.723,3.973,3.973,0,0,0-2.374.17,5.426,5.426,0,0,1-6.719-2,3.833,3.833,0,0,1-.341-.564c-.557-1.112-3.016-5.632-6.6-6.455" transform="translate(-2370.721 4452.05)" fill="none" stroke="#fff" stroke-linecap="round" stroke-miterlimit="10" stroke-width="2"/>
    <path id="Path_61" data-name="Path 61" d="M2745.458-4807.5s1.335,6.584,4.624,8.539a1.337,1.337,0,0,0,.179.088c.756.306,6.085,2.575,7.03,6.211a5.414,5.414,0,0,0,6.057,3.8s6.661-.016,8.278,5.555c0,0,2.08,6.35,6.508,4.967" transform="translate(-2383.707 4877.455)" fill="none" stroke="#fff" stroke-linecap="round" stroke-miterlimit="10" stroke-width="2"/>
    <path id="Path_62" data-name="Path 62" d="M2589.833-4285.466s-4.02,3.359-1.216,7.294a7.826,7.826,0,0,1,1.707,7.964s-2.408,6.223,1.814,8.1c0,0,4.546.252,1.948,5.773,0,0-2.965,6.158-.914,8.275,0,0,1.6,2.739.3,4.946a7.68,7.68,0,0,0-1.044,3.146c-.262,2.741-.355,7.334,1.5,9.879,0,0,3.735,3.74,3.086,7.582" transform="translate(-2231.448 4373.861)" fill="none" stroke="#fff" stroke-linecap="round" stroke-miterlimit="10" stroke-width="2"/>
    <path id="Path_63" data-name="Path 63" d="M3666.724-3670.666s2.771,4.321.379,8.148c0,0-3.176,4.292-.847,7.125,0,0,2.751,3.658.105,5.852,0,0-2.849,3.516,2.9,6.844" transform="translate(-3271.151 3780.783)" fill="none" stroke="#fff" stroke-linecap="round" stroke-miterlimit="10" stroke-width="2"/>
    <path id="Path_64" data-name="Path 64" d="M3293.824-3999.926s6.142,6.36,5.079,9.251c0,0-1.619,5.148,1.877,7.691,0,0,3.809,2.91,2.056,7.146,0,0-3.223,4.515-.589,8.658,0,0,5.782,7.486-2.348,13.085" transform="translate(-2912.699 4098.409)" fill="none" stroke="#fff" stroke-linecap="round" stroke-miterlimit="10" stroke-width="2"/>
    <path id="Path_65" data-name="Path 65" d="M2682.468-3953.439s4.668-1.833,3.035-5.221c0,0-3.686-1.97.588-6.477,0,0,2.214-1.812-.159-7.57,0,0-2.941-3.176-2.035-6.235,0,0,.651-5.34-1.753-6.388,0,0-5.327-1.136-4.971-7.46,0,0,.173-5.681-4.508-6.636,0,0-4.387.029-4.873-5.347,0,0,1.25-5.535-8.871-8.336" transform="translate(-2300.227 4111.128)" fill="none" stroke="#fff" stroke-linecap="round" stroke-miterlimit="10" stroke-width="2"/>
    <path id="Path_66" data-name="Path 66" d="M2965.824-4124.162a15.994,15.994,0,0,0-6.88-5.084s-4.96-.8-5.319-5.035c0,0,.316-4.051-2.514-4.951,0,0-3.48-.763-4.509-7.044" transform="translate(-2577.745 4239.59)" fill="none" stroke="#fff" stroke-linecap="round" stroke-miterlimit="10" stroke-width="2"/>
    <path id="Path_67" data-name="Path 67" d="M2917.354-3735.376s3.81,8.882,1.894,13.128a10.447,10.447,0,0,0,.182,8.859s2.924,9.511-.426,13.957" transform="translate(-2549.531 3843.207)" fill="none" stroke="#fff" stroke-linecap="round" stroke-miterlimit="10" stroke-width="2"/>
    <path id="Path_68" data-name="Path 68" d="M3163.915-3339.124s-.809,5.377,1.145,8.793c0,0,2.137,4.506-.186,6.06a4,4,0,0,0-.42,5.618s5.768,6.961-1.466,9.9" transform="translate(-2786.486 3460.954)" fill="none" stroke="#fff" stroke-linecap="round" stroke-miterlimit="10" stroke-width="2"/>
    <path id="Path_69" data-name="Path 69" d="M2454.984-5353.926c11.895,1.839,12.854,12.236,12.854,12.236,1.328,4.428,6.014,5.219,6.014,5.219,4.829,1.448,4.872,5.347,4.872,5.347-.852,6.634,6.416,8.03,6.416,8.03,6.7-1.384,9.919,4.978,9.919,4.978l2.642,3.98a6.541,6.541,0,0,1,2.959,3.618,3.906,3.906,0,0,1-.691,3.346c-.9,1.184-2.208,3.854.839,6.969" transform="translate(-2103.496 5404.574)" fill="none" stroke="#fff" stroke-linecap="round" stroke-miterlimit="10" stroke-width="2"/>
    <path id="Path_70" data-name="Path 70" d="M566.22-6567.829s2.831-5.62,11-5.049a13.1,13.1,0,0,1,5.034,1.424,12.983,12.983,0,0,0,8.806.836s5.835-2.259,9.935.466c0,0,1.009,2.3,5.717.014,0,0,4.232-2.634,9.921,2.576,0,0,4.061,5.322,7.356,3.8a8.653,8.653,0,0,1,8.548,2.024,7.08,7.08,0,0,0,5.87,4.59,6.791,6.791,0,0,1,6.89,2.905,5.963,5.963,0,0,1,1.074,3.366s-.337,4.209,2.92,4.735c0,0,9.067,3.524,8.678,10.471" transform="translate(-281.462 6580.498)" fill="none" stroke="#fff" stroke-linecap="round" stroke-miterlimit="10" stroke-width="2"/>
    <path id="Path_71" data-name="Path 71" d="M662.617-6417.152s2.047-4.8,8-3c0,0,5.272,2.909,9.855,1.757,0,0,7.4-2.867,12.6,2.17,0,0,5.257,3.4,9.251.284,0,0,4.756-1.474,7.828,4.306a7.485,7.485,0,0,0,9.182,2.554s5.439-1.835,7.255,4.824a8.6,8.6,0,0,0,7.511,5.208s5.376.653,6.221,4.9c0,0,2.252,6.891,8.055,5.282,0,0,6.162-1.247,7.353,6.9" transform="translate(-374.454 6433.518)" fill="none" stroke="#fff" stroke-linecap="round" stroke-miterlimit="10" stroke-width="2"/>
    <path id="Path_72" data-name="Path 72" d="M1101.088-6337.991c-1.875-.5-3.634-1.363-4.194-2.853,0,0-1.824-4.44-5.429-3.415,0,0-3.693.214-5.581-2.607,0,0-2.732-5.308-11.64-4.428" transform="translate(-771.538 6366.799)" fill="none" stroke="#fff" stroke-linecap="round" stroke-miterlimit="10" stroke-width="2"/>
    <path id="Path_73" data-name="Path 73" d="M2052.252-5905.083s-8.6-.264-10.366-6.327c0,0-2.841-7.073-10.043-8.429a7.515,7.515,0,0,1-5.193-3.957s-2.011-7.959-5.906-8.078c0,0-5.8-1.477-7.351-3.961,0,0-2.734-6.257-8.1-6.1a5.92,5.92,0,0,1-6.2-4.516s-1.28-5.958-6.636-6.114" transform="translate(-1657.312 5982.059)" fill="none" stroke="#fff" stroke-linecap="round" stroke-miterlimit="10" stroke-width="2"/>
    <path id="Path_74" data-name="Path 74" d="M2741.8-6107.253s-4.185,2.063-9.806-1.486" transform="translate(-2370.721 6132.72)" fill="none" stroke="#fff" stroke-linecap="round" stroke-miterlimit="10" stroke-width="2"/>
    <path id="Path_75" data-name="Path 75" d="M3306.664-5304.97s4.115,5.724,3.3,9.3c0,0-2.015,6.041-.307,8.975" transform="translate(-2925.086 5357.346)" fill="none" stroke="#fff" stroke-linecap="round" stroke-miterlimit="10" stroke-width="2"/>
    <path id="Path_76" data-name="Path 76" d="M3515.014-4651.221s6.7,4.744,3.348,11.71" transform="translate(-3126.075 4726.693)" fill="none" stroke="#fff" stroke-linecap="round" stroke-miterlimit="10" stroke-width="2"/>
    <path id="Path_77" data-name="Path 77" d="M2946.6-5550.107s3.325,6.612,7.644,8.713c0,0,8.923,5.533,8.161,9.979" transform="translate(-2577.745 5593.822)" fill="none" stroke="#fff" stroke-linecap="round" stroke-miterlimit="10" stroke-width="2"/>
    <path id="Path_78" data-name="Path 78" d="M3726.2-3624.319s8.385,9.665-1.772,17.462" transform="translate(-3328.086 3736.072)" fill="none" stroke="#fff" stroke-linecap="round" stroke-miterlimit="10" stroke-width="2"/>
    <path id="Path_79" data-name="Path 79" d="M3588.864-2909.313s-.628,4.546.654,6.76c0,0,4.221,3.415,0,7.582" transform="translate(-3197.167 3046.329)" fill="none" stroke="#fff" stroke-linecap="round" stroke-miterlimit="10" stroke-width="2"/>
    <path id="Path_80" data-name="Path 80" d="M1476.337-5441.866s2.1,5.73,6.215,5.521c0,0,7.144.006,8.226,5.311,0,0,.325,6.818,6.17,7.686,0,0,5.845.216,5.737,5.737,0,0,.65,7.036,4.546,8.658,0,0,5.468,1.374,5.657,5.72" transform="translate(-1159.425 5489.406)" fill="none" stroke="#fff" stroke-linecap="round" stroke-miterlimit="10" stroke-width="2"/>
    <path id="Path_81" data-name="Path 81" d="M1583.9-5021.071a8.354,8.354,0,0,0,6.96,3.866,5.208,5.208,0,0,1,4.98,3.537s1.19,5.231,6.278,6.53c0,0,7.2-.307,6.278,7.288,0,0-1.433,6.3,3.613,8.569,0,0,3.358,1.086,2.9,6.355a22.813,22.813,0,0,0,.161,5.434s-.452,5.728,3.446,7.768a5.124,5.124,0,0,1,1.449,4.6,8.433,8.433,0,0,0,.667,5.386,9.58,9.58,0,0,0,4.6,4.754" transform="translate(-1263.191 5083.477)" fill="none" stroke="#fff" stroke-linecap="round" stroke-miterlimit="10" stroke-width="2"/>
    <path id="Path_82" data-name="Path 82" d="M2481.213-2530s14.583-12.8,16.825-2.851a9.239,9.239,0,0,1-.1,4.392,96.015,96.015,0,0,1-6.666,17.618s-2.1,12.383-5.133,17.689a9.247,9.247,0,0,0-1.165,3.551c-.448,4.035-2.409,12.533-10.995,12.533" transform="translate(-2121.824 2686.817)" fill="none" stroke="#fff" stroke-linecap="round" stroke-miterlimit="10" stroke-width="2"/>
    <path id="Path_83" data-name="Path 83" d="M-2110.516-3886.205s-4.221,2.524-.975,14.864c0,0,1.858,5.682-.127,10.392,0,0-1.263,3.733,0,5.845,0,0,1.548,9-1.1,11.69" transform="translate(2302.829 3988.706)" fill="none" stroke="#fff" stroke-linecap="round" stroke-miterlimit="10" stroke-width="2"/>
    <path id="Path_84" data-name="Path 84" d="M-2062.415-2345.676a63.847,63.847,0,0,0,.425-7.282v-.251" transform="translate(2254.302 2509.871)" fill="none" stroke="#fff" stroke-linecap="round" stroke-miterlimit="10" stroke-width="2"/>
    <line id="Line_29" data-name="Line 29" y2="30.867" transform="translate(207.836 259.056)" fill="none" stroke="#ffd500" stroke-linecap="round" stroke-miterlimit="10" stroke-width="2"/>
    <path id="Path_85" data-name="Path 85" d="M-530.926-1404.294s-10.748,13.694,2.338,15.235" transform="translate(780.928 1594.482)" fill="none" stroke="#fff" stroke-linecap="round" stroke-miterlimit="10" stroke-width="2"/>
    <path id="Path_86" data-name="Path 86" d="M834.551-1379.722s7.732,12.826-1.7,14.68" transform="translate(-538.672 1570.778)" fill="none" stroke="#fff" stroke-linecap="round" stroke-miterlimit="10" stroke-width="2"/>
    <path id="Path_87" data-name="Path 87" d="M-230.526-1020.443s2.5-1.34,4.992,1.312a16.181,16.181,0,0,0,2.651,2.556c3.155,2.1,7.215,5.325,14.839,1.477a22.079,22.079,0,0,0,3.9-2.53c1.617-1.3,5.126-3.759,7.329-2.575" transform="translate(487.135 1224.518)" fill="none" stroke="#fff" stroke-linecap="round" stroke-miterlimit="10" stroke-width="2"/>
    <path id="Path_88" data-name="Path 88" d="M2753.958-2290.628s4.807-9.835,8.488-6.758" transform="translate(-2391.907 2456.596)" fill="none" stroke="#fff" stroke-linecap="round" stroke-miterlimit="10" stroke-width="2"/>
    <path id="Path_89" data-name="Path 89" d="M2831.345-2205.125s.578-6.132-3.608-5.392" transform="translate(-2463.079 2372.279)" fill="none" stroke="#fff" stroke-linecap="round" stroke-miterlimit="10" stroke-width="2"/>
    <path id="Path_90" data-name="Path 90" d="M-2356.857-2409.555s-4.871-8.864-7.577-3.668" transform="translate(2545.651 2569.341)" fill="none" stroke="#fff" stroke-linecap="round" stroke-miterlimit="10" stroke-width="2"/>
    <path id="Path_91" data-name="Path 91" d="M-2304.747-2346.61s-2.108-5.3,2.874-6.6" transform="translate(2488.5 2509.871)" fill="none" stroke="#fff" stroke-linecap="round" stroke-miterlimit="10" stroke-width="2"/>
    <path id="Path_92" data-name="Path 92" d="M-2050.393-2902.89l4.456,4.839a4.372,4.372,0,0,0,2.483,1.349l6.283,1.064,1.494-5.112-5.946-.413a4.362,4.362,0,0,1-2.639-1.127l-6.13-5.58Z" transform="translate(2242.688 3044.953)" fill="#fff"/>
    <path id="Path_93" data-name="Path 93" d="M2269.4-2768.447l5.091-.167a3,3,0,0,0,2.249-1.132l8.633-10.893,1.146,1.537v1.218l-7.855,11.726a3,3,0,0,1-1.948,1.278l-7.038,1.294Z" transform="translate(-1924.489 2922.218)" fill="#fff"/>
    <path id="Path_94" data-name="Path 94" d="M-856.647-151.645a20.809,20.809,0,0,1,6.779-.51c1.97.171,3.893.711,5.865.852,5.32.381,15.729,1.317,23.429,3.21a9.774,9.774,0,0,0,3.754.176c3.623-.532,11.565-1.637,17.965-2.095q1.866-.133,3.738-.112a29.275,29.275,0,0,0,6.382-.534,15.07,15.07,0,0,1,1.5-.277,11.675,11.675,0,0,1,4.091.066" transform="translate(1091.135 386.655)" fill="none" stroke="#fff" stroke-linecap="round" stroke-miterlimit="10" stroke-width="2"/>
    <path id="Path_95" data-name="Path 95" d="M54.728-331.188l5.367,1.617a3.766,3.766,0,0,0,2.2-.007l5.231-1.611" transform="translate(211.959 559.289)" fill="none" stroke="#fff" stroke-linecap="round" stroke-miterlimit="10" stroke-width="2"/>
    <path id="Path_96" data-name="Path 96" d="M-1611.122,1383.025v4.153a6.929,6.929,0,0,0,.958,3.516c2.187,3.716,5.125,8.286,7.717,12.218a151.693,151.693,0,0,0,11.961,15.8l12.636,14.6a8.1,8.1,0,0,0,1.973,1.654c5.106,3.048,26.374,16.909,21.651,33.8l-.9,2.692a75.726,75.726,0,0,1-4.167,10.014,43.949,43.949,0,0,0-2.514,33.779,60,60,0,0,1,2.84,12.617,124.448,124.448,0,0,1-2.46,40.429" transform="translate(1818.954 -1094.361)" fill="none" stroke="#ffd500" stroke-linecap="round" stroke-miterlimit="10" stroke-width="2"/>
    <path id="Path_97" data-name="Path 97" d="M1538.885,391.918s15.971-14.2,19.4-28.377a6.84,6.84,0,0,0,.191-1.614v-3.566l.942-19.742" transform="translate(-1219.763 -86.855)" fill="none" stroke="#ffd500" stroke-linecap="round" stroke-miterlimit="10" stroke-width="2"/>
    <path id="Path_98" data-name="Path 98" d="M-462.561,1974.942s42.134-14.724,66.814-35.833" transform="translate(710.972 -1630.799)" fill="none" stroke="#ffd500" stroke-linecap="round" stroke-miterlimit="10" stroke-width="2"/>
    <path id="Path_99" data-name="Path 99" d="M-1544.151,2934.421c2.866-3.911,6.081-8.531,9.663-13.981l13.855-22.3s5.69-6.566,12.8-3.608" transform="translate(1754.349 -2551.728)" fill="none" stroke="#ffd500" stroke-linecap="round" stroke-miterlimit="10" stroke-width="2"/>
    <path id="Path_100" data-name="Path 100" d="M-2065.031,707.451s-5.074,4.33-7.239,15.587l-7.205,34.024a25.224,25.224,0,0,0-.545,5.592c.19,12.969.818,67.03-1.63,82.777a.456.456,0,0,0,.714.441c1.742-1.236,6.111-4.87,13.606-14.378" transform="translate(2272.863 -442.655)" fill="none" stroke="#ffd500" stroke-linecap="round" stroke-miterlimit="10" stroke-width="2"/>
    <path id="Path_101" data-name="Path 101" d="M9.743,709.072,36.9,763.792a.472.472,0,0,0,.8.066l26.1-36.212q3.451-4.787,7.218-9.333c9.1-10.987,35.025-45.417,26.408-71.808,0,0-10.455-45.68-13.129-42.216" transform="translate(255.354 -342.957)" fill="none" stroke="#ffd500" stroke-linecap="round" stroke-miterlimit="10" stroke-width="2"/>
    <path id="Path_102" data-name="Path 102" d="M2436.133,1570.071,2509,1597.4l33.772,5.845s52.283,11.042,65.6,69.494l16.238,53.581" transform="translate(-2085.311 -1274.799)" fill="none" stroke="#ffd500" stroke-linecap="round" stroke-miterlimit="10" stroke-width="2"/>
    <line id="Line_50" data-name="Line 50" x2="2.357" y2="6.819" transform="translate(541.212 458.036)" fill="none" stroke="#ffd500" stroke-linecap="round" stroke-miterlimit="10" stroke-width="2"/>
    <path id="Path_103" data-name="Path 103" d="M-6805.542,1975.83l-55.434,16.921a56.974,56.974,0,0,0-23.351,14.025,178.308,178.308,0,0,0-48.186,89.537" transform="translate(6952.337 -1666.222)" fill="none" stroke="#ffd500" stroke-linecap="round" stroke-miterlimit="10" stroke-width="2"/>
    <path id="Path_104" data-name="Path 104" d="M-3069.287,1596.071s-25.724,7.591-42.43,11.5" transform="translate(3266.533 -1299.88)" fill="none" stroke="#ffd500" stroke-linecap="round" stroke-miterlimit="10" stroke-width="2"/>
    <line id="Line_51" data-name="Line 51" x1="6.495" y2="29.223" transform="translate(11.719 435.636)" fill="none" stroke="#ffd500" stroke-linecap="round" stroke-miterlimit="10" stroke-width="2"/>
    <path id="Path_105" data-name="Path 105" d="M-1178.675,3098.415s4.284,4.777,0,24.126c0,0-6.232,17.4-3.31,32.014,0,0,3.248,18.829-5.845,56.014" transform="translate(1410.617 -2749.146)" fill="none" stroke="#ffd500" stroke-linecap="round" stroke-miterlimit="10" stroke-width="2"/>
    <line id="Line_52" data-name="Line 52" x1="4.067" y2="22.407" transform="translate(217.269 467.116)" fill="none" stroke="#ffd500" stroke-linecap="round" stroke-miterlimit="10" stroke-width="2"/>
    <path id="Path_106" data-name="Path 106" d="M2475.728,2553.325s25.49,9.694,40.428,14.132" transform="translate(-2123.507 -2223.314)" fill="none" stroke="#ffd500" stroke-linecap="round" stroke-miterlimit="10" stroke-width="2"/>
    <line id="Line_53" data-name="Line 53" x2="6.928" y2="2.598" transform="translate(397.842 345.58)" fill="none" stroke="#ffd500" stroke-linecap="round" stroke-miterlimit="10" stroke-width="2"/>
    <line id="Line_54" data-name="Line 54" x1="22.159" y2="3.784" transform="translate(170.139 326.254)" fill="none" stroke="#ffd500" stroke-linecap="round" stroke-miterlimit="10" stroke-width="2"/>
    <path id="Path_107" data-name="Path 107" d="M3182.116-2488.124s7.156,3.6,4.4,9.867c0,0-1.131,4.2,1.3,5.391" transform="translate(-2804.938 2640.02)" fill="none" stroke="#fff" stroke-linecap="round" stroke-miterlimit="10" stroke-width="2"/>
    <path id="Path_108" data-name="Path 108" d="M3131.939-2233.823a4.354,4.354,0,0,0,5.918,3.315" transform="translate(-2756.534 2394.703)" fill="none" stroke="#fff" stroke-linecap="round" stroke-miterlimit="10" stroke-width="2"/>
    <path id="Path_109" data-name="Path 109" d="M-7493.192-6323.1l18.185-70.79s29.226-61.374,62.351-74.364l106.838-31.015s5.422-21.916,9.854-26.463c0,0-10.931-16.354-11.637-46.6,0,0-8.307-4.49-8.079-20.945,0,0-5.617-14.071-6.051-25.979,0,0-13.762-1.947-10.892-17.318,0,0-15.008,0-11.475-17.1,0,0-15.737-2.483-11.84-23.865l3.9-15.593s-1.061-9.037,4.449-13.366a16.164,16.164,0,0,1,3.493-14.574,22.21,22.21,0,0,1,7.153-19.316s3.958-13.3,13.886-14.251c0,0-.5-8.808,12-11.183,0,0,4.157-12.734,23.385-9.917,0,0,4.539-2.292,11.653-.407,0,0,5.229-9.153,17.755-5.689,0,0,8.035-5.036,17.824.647,0,0,6.274-5.411,19.43-1.516,0,0,5.532-2.6,10.536-1.409,0,0,7.813-6.816,28.6-2.271,0,0,6.929-.864,12.558,1.516,0,0,7.792-5.861,19.7,5.078,0,0,7.6-3.387,17.314,7.268,0,0,24.609.351,19.125,15.869,0,0,7.554,8.909,6.772,14.81,0,0,9.08,3.955,6.424,18.894,0,0,.3,5.487,4.885,5.773,0,0,10.148.838,3.251,13.877,0,0,6.724,2.139,2.4,17.871,0,0,6.722,1.224,4.774,14.865a24.055,24.055,0,0,1-3.249,14.074s4.094,10.912-3.927,14.827c0,0,1.977,10.461-9.82,14.162,0,0,1.115,17.557-11.512,14.959l-7.28,16.886s-3.535,21.8-13.141,25.653c0,0-4.866,29.417-11.69,36.914l10.149,32.041,69.737,27.5s68.628,5.629,92.225,49.359c0,0,9.52,18.619,19.266,54.989l14.723,51.742-14.723,32.823H-7481.5Z" transform="translate(7493.192 6787.954)" fill="none"/>
    <path id="Path_110" data-name="Path 110" d="M-1919.594-2217.166h0q0,1.99.126,3.976a92.808,92.808,0,0,1-1.1,21.076l-1.62,9.647s-2.6,9.742-4.329,21l-1.625,9a76.433,76.433,0,0,1-8.245,23.314,54.114,54.114,0,0,1-8.749,12.065l-16.4,16.236-13.039,11.474s-12.124,9.958-34.64,8.443c0,0-21.216,1.731-33.2-11.69l-15.729-14.938c-24.248-20.35-24.525-46.862-24.525-46.862l-2.375-26.312-.594-5.78a129.015,129.015,0,0,1-.406-21.515" transform="translate(2277.342 2378.652)" fill="none" stroke="#fff" stroke-linecap="round" stroke-miterlimit="10" stroke-width="2"/>
    <path id="Path_111" data-name="Path 111" d="M-274.846,291.744s6.35,5.52,19.281,4.655c0,0,12.238.115,19.171-5.629" transform="translate(529.871 -40.678)" fill="none" stroke="#fff" stroke-linecap="round" stroke-miterlimit="10" stroke-width="2"/>
  </g>
</svg>
