<svg xmlns="http://www.w3.org/2000/svg" width="119.989" height="90" viewBox="0 0 119.989 90">
  <path id="Icon_awesome-sass" data-name="Icon awesome-sass" d="M56.59,69.166C56.534,69.279,56.477,69.369,56.59,69.166ZM103.3,52.855a24.59,24.59,0,0,0-10.874,2.531c-1.106-2.231-2.25-4.181-2.437-5.643A15.064,15.064,0,0,1,89.78,45a39.945,39.945,0,0,1,1.425-5.1c-.019-.206-.262-1.237-2.681-1.256s-4.5.469-4.741,1.106a23.029,23.029,0,0,0-.994,3.581c-.431,2.194-4.835,10.03-7.329,14.118a14.557,14.557,0,0,1-1.669-4.125,15.064,15.064,0,0,1-.206-4.743,39.945,39.945,0,0,1,1.425-5.1c-.019-.206-.262-1.237-2.679-1.256s-4.5.469-4.743,1.106-.506,2.137-.994,3.581S60.24,61.4,58.7,64.8c-.787,1.725-1.462,3.112-1.95,4.05-.075.15-.131.244-.169.319.056-.094.094-.187.094-.15-.412.806-.656,1.256-.656,1.256v.019c-.319.6-.675,1.144-.844,1.144a7.777,7.777,0,0,1,.056-3.731c.881-4.537,2.962-11.587,2.944-11.83-.019-.131.394-1.35-1.369-2.006a2.207,2.207,0,0,0-2.475.412c-.15,0-.262.375-.262.375s1.894-7.949-3.635-7.949c-3.45,0-8.249,3.787-10.608,7.218-1.481.806-4.687,2.55-8.062,4.406-1.294.712-2.625,1.444-3.881,2.137-.094-.094-.169-.187-.262-.281-6.71-7.162-19.1-12.224-18.574-21.842.187-3.506,1.406-12.711,23.824-23.886,18.374-9.149,33.063-6.637,35.592-1.05,3.637,7.968-7.854,22.8-26.934,24.935-7.273.806-11.1-2.006-12.052-3.056-.994-1.106-1.144-1.162-1.519-.956-.619.337-.225,1.312,0,1.894.562,1.481,2.906,4.106,6.9,5.418,3.506,1.144,12.033,1.781,22.343-2.212,11.583-4.462,20.6-16.892,17.955-27.3C72.466,1.559,54.933-1.909,38.353,3.978,28.475,7.484,17.792,13,10.107,20.177.978,28.726-.482,36.169.118,39.281,2.253,50.324,17.473,57.524,23.565,62.848c-.3.169-.581.319-.844.469C19.667,64.836,8.063,70.91,5.159,77.322,1.878,84.6,5.7,89.809,8.213,90.521c7.835,2.175,15.857-1.744,20.168-8.174s3.787-14.83,1.8-18.655c-.019-.056-.056-.094-.075-.15.787-.469,1.594-.937,2.4-1.406,1.554-.919,3.073-1.762,4.4-2.494a29.121,29.121,0,0,0-1.575,7.987C35,71.754,36.7,77.1,38.916,79.2a3.935,3.935,0,0,0,2.885.937c2.587,0,3.75-2.137,5.041-4.687,1.594-3.112,3-6.731,3-6.731S48.08,78.5,52.9,78.5c1.76,0,3.523-2.269,4.312-3.431v.019s.038-.075.131-.225c.187-.281.281-.45.281-.45V74.36c.712-1.219,2.269-4.012,4.61-8.624,3.037-5.962,5.941-13.405,5.941-13.405a37.731,37.731,0,0,0,1.162,4.837,45.288,45.288,0,0,0,2.512,5.625c-.712.975-1.144,1.537-1.144,1.537a.058.058,0,0,0,.019.037c-.562.75-1.2,1.556-1.856,2.344-2.4,2.85-5.25,6.112-5.625,7.049a1.915,1.915,0,0,0,.525,2.569,4.557,4.557,0,0,0,2.942.469,13,13,0,0,0,4.406-1.012A15.411,15.411,0,0,0,74.9,73.8a8.464,8.464,0,0,0,3.637-7.462,15.528,15.528,0,0,0-1.369-5.287c.206-.3.431-.619.637-.937a99.669,99.669,0,0,0,6.579-11.365,37.731,37.731,0,0,0,1.162,4.837A33.072,33.072,0,0,0,87.684,58.4a20.609,20.609,0,0,0-6.391,8.268c-1.387,3.993-.3,5.793,1.744,6.206a6.291,6.291,0,0,0,3.206-.656,14.9,14.9,0,0,0,4.048-2.081c2.344-1.725,4.61-4.143,4.46-7.424a13.948,13.948,0,0,0-1.012-4.387,22.884,22.884,0,0,1,11.641-1.35c10.439,1.219,12.483,7.743,12.089,10.462a6.932,6.932,0,0,1-3.318,4.687c-.731.45-.956.619-.9.956.094.487.431.469,1.05.356a8.145,8.145,0,0,0,5.679-7.256c.3-6.374-5.829-13.386-16.686-13.33ZM22.833,79.984c-3.448,3.768-8.285,5.193-10.364,3.993-2.231-1.3-1.35-6.843,2.9-10.859a55.551,55.551,0,0,1,8.135-6.075c.506-.3,1.237-.75,2.137-1.294.15-.094.225-.131.225-.131.169-.112.356-.206.544-.319a14.964,14.964,0,0,1-3.581,14.68Zm25.19-17.136c-1.2,2.944-3.729,10.443-5.266,10.049-1.312-.337-2.119-6.056-.262-11.68A25.858,25.858,0,0,1,46.6,53.7c1.892-2.119,3.973-2.794,4.46-1.95C51.717,52.855,48.774,61.011,48.024,62.848Zm20.811,9.937c-.506.262-.975.431-1.2.3-.169-.094.206-.45.206-.45s2.606-2.794,3.637-4.068c.6-.75,1.294-1.631,2.042-2.606,0,.094.019.187.019.3-.024,3.356-3.247,5.625-4.71,6.524ZM84.88,69.129c-.375-.262-.319-1.144.937-3.881a14.572,14.572,0,0,1,3.562-4.593,6.783,6.783,0,0,1,.356,2.025c-.019,4.218-3.037,5.793-4.854,6.449Z" transform="translate(0 -1.125)" fill="#ffd500"/>
</svg>
