<svg xmlns="http://www.w3.org/2000/svg" width="163.571" height="90" viewBox="0 0 163.571 90">
  <g id="Group_563" data-name="Group 563" transform="translate(0 0)">
    <path id="Icon_awesome-html5" data-name="Icon awesome-html5" d="M0,2.25,7.011,81.763,38.471,92.25,70.132,81.763,77.143,2.25ZM61.915,27.944H24.991l.824,9.924H61.092L58.359,67.681,38.692,73.1v.06h-.221L18.643,67.681,17.438,52.453H27.02l.7,7.654L38.471,63.02l10.788-2.913,1.205-12.5H16.935l-2.571-29.25H62.8l-.884,9.583Z" transform="translate(0 -2.25)" fill="#ffd500"/>
    <path id="Icon_awesome-css3-alt" data-name="Icon awesome-css3-alt" d="M0,2.25,7.011,81.763,38.571,92.25l31.56-10.487L77.143,2.25ZM62.9,18.321l-.964,9.5-23.163,9.9-.06.02h22.4L58.54,67.2,38.813,72.964,18.964,67.1,17.679,52.252H27.5l.643,7.694,10.567,2.672L49.7,59.525l.743-12.375-33.408-.1v-.02l-.04.02-.723-9.3,22.52-9.382,1.306-.542H15.408l-1.165-9.5Z" transform="translate(86.428 -2.25)" fill="#ffd500"/>
  </g>
</svg>
