<svg xmlns="http://www.w3.org/2000/svg" width="90" height="90" viewBox="0 0 90 90">
  <defs>
    <style>
      .cls-1 {
        fill: #3a7eab;
      }
    </style>
  </defs>
  <path id="Icon_awesome-wordpress" data-name="Icon awesome-wordpress" class="cls-1" d="M10.306,29.849,28.724,80.292A38.611,38.611,0,0,1,10.306,29.849ZM71.619,43.621A20.357,20.357,0,0,0,68.444,32.97c-1.96-3.175-3.792-5.879-3.792-9.054a6.681,6.681,0,0,1,6.478-6.859c.163,0,.327.018.508.036A38.6,38.6,0,0,0,13.3,24.351c.907.036,1.76.054,2.486.054,4.028,0,10.288-.49,10.288-.49a1.593,1.593,0,0,1,.254,3.175s-2.087.236-4.409.363L35.982,69.26l8.456-25.331L38.431,27.454c-2.087-.127-4.046-.363-4.046-.363a1.592,1.592,0,0,1,.236-3.175s6.369.49,10.161.49c4.028,0,10.288-.49,10.288-.49a1.593,1.593,0,0,1,.254,3.175s-2.087.236-4.409.363l13.954,41.5,3.847-12.865C70.349,50.752,71.619,46.923,71.619,43.621ZM46.234,48.937,34.657,82.6a38.464,38.464,0,0,0,23.716-.617,2.891,2.891,0,0,1-.272-.526L46.234,48.937Zm33.206-21.9a30.076,30.076,0,0,1,.254,3.974,36.265,36.265,0,0,1-2.94,13.827L64.96,78.931a38.641,38.641,0,0,0,14.48-51.9ZM90.563,45.562a45,45,0,1,1-45-45A45.05,45.05,0,0,1,90.563,45.562Zm-2.069,0A42.931,42.931,0,1,0,45.562,88.494,42.983,42.983,0,0,0,88.494,45.562Z" transform="translate(-0.563 -0.563)"/>
</svg>
