<svg xmlns="http://www.w3.org/2000/svg" width="25.646" height="18.318" viewBox="0 0 25.646 18.318">
  <g id="Icon_feather-youtube" data-name="Icon feather-youtube" transform="translate(-0.999 -5.5)">
    <path id="Path_193" data-name="Path 193" d="M25.629,8.711a3.114,3.114,0,0,0-2.173-2.24C21.529,6,13.822,6,13.822,6s-7.707,0-9.634.515a3.114,3.114,0,0,0-2.173,2.24A32.486,32.486,0,0,0,1.5,14.682a32.486,32.486,0,0,0,.515,5.971A3.114,3.114,0,0,0,4.188,22.8c1.927.515,9.634.515,9.634.515s7.707,0,9.634-.515a3.114,3.114,0,0,0,2.173-2.24,32.486,32.486,0,0,0,.515-5.881,32.485,32.485,0,0,0-.515-5.971Z" transform="translate(0 0)" fill="none" stroke="#fff" stroke-linecap="round" stroke-linejoin="round" stroke-width="1"/>
    <path id="Path_194" data-name="Path 194" d="M14.625,20.046l6.441-3.663L14.625,12.72Z" transform="translate(-3.323 -1.702)" fill="none" stroke="#fff" stroke-linecap="round" stroke-linejoin="round" stroke-width="1"/>
  </g>
</svg>
