<?xml version="1.0" encoding="UTF-8" standalone="no"?>
<svg
   width="92.308"
   height="90"
   viewBox="0 0 92.308 90"
   version="1.1"
   id="svg7"
   sodipodi:docname="Icon simple-adobeillustrator.svg"
   inkscape:version="1.1 (c68e22c387, 2021-05-23)"
   xmlns:inkscape="http://www.inkscape.org/namespaces/inkscape"
   xmlns:sodipodi="http://sodipodi.sourceforge.net/DTD/sodipodi-0.dtd"
   xmlns="http://www.w3.org/2000/svg"
   xmlns:svg="http://www.w3.org/2000/svg">
  <sodipodi:namedview
     id="namedview9"
     pagecolor="#505050"
     bordercolor="#ffffff"
     borderopacity="1"
     inkscape:pageshadow="0"
     inkscape:pageopacity="0"
     inkscape:pagecheckerboard="1"
     showgrid="false"
     inkscape:zoom="8.3666667"
     inkscape:cx="46.135458"
     inkscape:cy="45"
     inkscape:window-width="1920"
     inkscape:window-height="1017"
     inkscape:window-x="1432"
     inkscape:window-y="-8"
     inkscape:window-maximized="1"
     inkscape:current-layer="svg7" />
  <defs
     id="defs4">
    <style
       id="style2">
      .cls-1 {
        fill: #3a7eab;
      }
    </style>
  </defs>
  <path
     id="Icon_simple-adobeillustrator"
     data-name="Icon simple-adobeillustrator"
     class="cls-1"
     d="M0,.45v90H92.308V.45ZM3.846,4.3H88.462V86.6H3.846ZM32.019,51.412,28.973,62.942c-.065.319-.192.392-.569.392H22.758c-.385,0-.442-.127-.385-.569L33.3,24.515a11.864,11.864,0,0,0,.377-3.2c0-.254.127-.385.319-.385h8.062c.254,0,.385.069.446.385L54.75,62.827c.065.319,0,.508-.319.508H48.085c-.319,0-.508-.077-.569-.331l-3.173-11.6H32.008Zm10.723-6.25c-1.077-4.254-3.615-13.569-4.569-18.077h-.065c-.823,4.5-2.854,12.115-4.442,18.077ZM60.05,23.785a3.935,3.935,0,1,1,7.869,0,3.685,3.685,0,0,1-4,3.935,3.616,3.616,0,0,1-3.885-3.935Zm.431,8.746c0-.308.127-.423.446-.423h6.038c.338,0,.462.127.462.446V62.919c0,.319-.062.446-.442.446H61.023c-.385,0-.512-.192-.512-.5V32.527Z"
     transform="translate(0 -0.45)"
     style="fill:#ffffff" />
</svg>
