<svg xmlns="http://www.w3.org/2000/svg" width="90" height="90" viewBox="0 0 90 90">
  <path id="Icon_awesome-bootstrap" data-name="Icon awesome-bootstrap" d="M58.721,58.486c0,8.52-7.979,8.323-8.823,8.323H33.648V50.4H49.9c8.55,0,8.823,6.408,8.823,8.088ZM48.646,43.795c.135,0,7.722.2,7.722-7.294,0-3.118-.705-7.206-7.722-7.206h-15v14.5ZM90,17.251v60a15.045,15.045,0,0,1-15,15H15a15.045,15.045,0,0,1-15-15v-60a15.045,15.045,0,0,1,15-15H75A15.045,15.045,0,0,1,90,17.251ZM67.912,59.677c0-4.333-1.336-11.71-9.854-13.53V46c4.6-1.965,7.5-5.675,7.5-11.178,0-1.406.4-13.014-15.589-13.014H24.457v52.5c25.76,0,28.1.338,32.866-1.147,2.855-.888,10.589-3.612,10.589-13.484Z" transform="translate(0 -2.25)" fill="#ffd500"/>
</svg>
