<svg xmlns="http://www.w3.org/2000/svg" width="92.306" height="90" viewBox="0 0 92.306 90">
  <defs>
    <style>
      .cls-1 {
        fill: #3a7eab;
      }
    </style>
  </defs>
  <path id="Icon_awesome-github" data-name="Icon awesome-github" class="cls-1" d="M30.874,73.03c0,.372-.428.67-.968.67-.614.056-1.042-.242-1.042-.67,0-.372.428-.67.968-.67C30.39,72.3,30.874,72.6,30.874,73.03Zm-5.788-.837c-.13.372.242.8.8.912a.873.873,0,0,0,1.154-.372c.112-.372-.242-.8-.8-.968A.955.955,0,0,0,25.086,72.193Zm8.226-.316c-.54.13-.912.484-.856.912.056.372.54.614,1.1.484.54-.13.912-.484.856-.856C34.354,72.063,33.852,71.821,33.312,71.877ZM45.558.563C19.745.563,0,20.159,0,45.971A46.657,46.657,0,0,0,31.544,90.487c2.382.428,3.22-1.042,3.22-2.252,0-1.154-.056-7.519-.056-11.427,0,0-13.027,2.792-15.763-5.546,0,0-2.122-5.416-5.174-6.811,0,0-4.262-2.922.3-2.866a9.823,9.823,0,0,1,7.184,4.8c4.076,7.184,10.906,5.118,13.567,3.89A10.343,10.343,0,0,1,37.8,64c-10.4-1.154-20.9-2.661-20.9-20.564,0-5.118,1.414-7.686,4.392-10.961a17.583,17.583,0,0,1,.484-12.636c3.89-1.21,12.841,5.025,12.841,5.025a43.965,43.965,0,0,1,23.374,0s8.951-6.253,12.841-5.025a17.575,17.575,0,0,1,.484,12.636c2.978,3.294,4.8,5.862,4.8,10.961C76.115,61.4,65.154,62.832,54.751,64c1.712,1.47,3.164,4.262,3.164,8.635,0,6.272-.056,14.032-.056,15.558,0,1.21.856,2.68,3.22,2.252,18.61-6.179,31.228-23.84,31.228-44.478C92.306,20.159,71.37.563,45.558.563ZM18.089,64.749c-.242.186-.186.614.13.968.3.3.726.428.968.186.242-.186.186-.614-.13-.968C18.759,64.637,18.331,64.507,18.089,64.749Zm-2.01-1.507c-.13.242.056.54.428.726a.554.554,0,0,0,.8-.13c.13-.242-.056-.54-.428-.726C16.507,63,16.209,63.055,16.079,63.241Zm6.03,6.625c-.3.242-.186.8.242,1.154.428.428.968.484,1.21.186.242-.242.13-.8-.242-1.154C22.909,69.625,22.351,69.569,22.109,69.867Zm-2.122-2.736c-.3.186-.3.67,0,1.1s.8.614,1.042.428a.849.849,0,0,0,0-1.154C20.769,67.075,20.285,66.889,19.987,67.131Z" transform="translate(0 -0.563)"/>
</svg>
