<?xml version="1.0" encoding="UTF-8" standalone="no"?>
<svg
   width="90"
   height="87.75"
   viewBox="0 0 90 87.75"
   version="1.1"
   id="svg7"
   sodipodi:docname="Icon simple-adobephotoshop.svg"
   inkscape:version="1.1 (c68e22c387, 2021-05-23)"
   xmlns:inkscape="http://www.inkscape.org/namespaces/inkscape"
   xmlns:sodipodi="http://sodipodi.sourceforge.net/DTD/sodipodi-0.dtd"
   xmlns="http://www.w3.org/2000/svg"
   xmlns:svg="http://www.w3.org/2000/svg">
  <sodipodi:namedview
     id="namedview9"
     pagecolor="#505050"
     bordercolor="#ffffff"
     borderopacity="1"
     inkscape:pageshadow="0"
     inkscape:pageopacity="0"
     inkscape:pagecheckerboard="1"
     showgrid="false"
     inkscape:zoom="6.0678223"
     inkscape:cx="42.189766"
     inkscape:cy="47.216281"
     inkscape:window-width="1920"
     inkscape:window-height="1017"
     inkscape:window-x="1432"
     inkscape:window-y="-8"
     inkscape:window-maximized="1"
     inkscape:current-layer="svg7" />
  <defs
     id="defs4">
    <style
       id="style2">
      .cls-1 {
        fill: #3a7eab;
      }
    </style>
  </defs>
  <path
     id="Icon_simple-adobephotoshop"
     data-name="Icon simple-adobephotoshop"
     class="cls-1"
     d="M0,.45V88.2H90V.45ZM3.75,4.2h82.5V84.45H3.75Zm18,16.8c0-.251.525-.435.84-.435,2.415-.124,5.955-.187,9.667-.187,10.4,0,14.438,5.7,14.438,13,0,9.525-6.908,13.612-15.382,13.612-1.425,0-1.913-.064-2.906-.064V61.331c0,.311-.124.435-.431.435h-5.79c-.311,0-.431-.112-.431-.424V21Zm6.656,19.92c.863.06,1.545.06,3.038.06,4.387,0,8.512-1.545,8.512-7.485,0-4.762-2.948-7.177-7.957-7.177-1.485,0-2.906.06-3.589.124v14.49Zm32.276-4.455c-2.97,0-3.96,1.485-3.96,2.723,0,1.361.675,2.288,4.639,4.331,5.88,2.85,7.733,5.569,7.733,9.589,0,6-4.575,9.225-10.763,9.225a16.384,16.384,0,0,1-7.687-1.613c-.244-.124-.3-.307-.3-.619V54.6c0-.375.18-.5.428-.315a13.814,13.814,0,0,0,7.545,2.228c2.97,0,4.208-1.238,4.208-2.91,0-1.361-.863-2.539-4.639-4.519-5.325-2.55-7.553-5.138-7.553-9.476,0-4.826,3.773-8.85,10.331-8.85a17.479,17.479,0,0,1,6.728,1.05.818.818,0,0,1,.375.743v5.137c0,.311-.187.5-.562.375a13.429,13.429,0,0,0-6.536-1.613Z"
     transform="translate(0 -0.45)"
     style="fill:#ffffff;fill-opacity:1" />
</svg>
