<?xml version="1.0" encoding="UTF-8" standalone="no"?>
<svg
   width="92.308"
   height="90"
   viewBox="0 0 92.308 90"
   version="1.1"
   id="svg7"
   sodipodi:docname="Icon simple-adobexd.svg"
   inkscape:version="1.1 (c68e22c387, 2021-05-23)"
   xmlns:inkscape="http://www.inkscape.org/namespaces/inkscape"
   xmlns:sodipodi="http://sodipodi.sourceforge.net/DTD/sodipodi-0.dtd"
   xmlns="http://www.w3.org/2000/svg"
   xmlns:svg="http://www.w3.org/2000/svg">
  <sodipodi:namedview
     id="namedview9"
     pagecolor="#505050"
     bordercolor="#ffffff"
     borderopacity="1"
     inkscape:pageshadow="0"
     inkscape:pageopacity="0"
     inkscape:pagecheckerboard="1"
     showgrid="false"
     inkscape:zoom="8.3666667"
     inkscape:cx="46.135458"
     inkscape:cy="45"
     inkscape:window-width="1920"
     inkscape:window-height="1017"
     inkscape:window-x="1432"
     inkscape:window-y="-8"
     inkscape:window-maximized="1"
     inkscape:current-layer="svg7" />
  <defs
     id="defs4">
    <style
       id="style2">
      .cls-1 {
        fill: #3a7eab;
      }
    </style>
  </defs>
  <path
     id="Icon_simple-adobexd"
     data-name="Icon simple-adobexd"
     class="cls-1"
     d="M75.962.45H16.346A16.332,16.332,0,0,0,0,16.8V74.1A16.332,16.332,0,0,0,16.346,90.45H75.962A16.332,16.332,0,0,0,92.308,74.1V16.8A16.332,16.332,0,0,0,75.962.45ZM88.423,72.6A13.935,13.935,0,0,1,74.5,86.6H17.808A13.985,13.985,0,0,1,3.846,72.642V18.258A13.985,13.985,0,0,1,17.808,4.3H74.462A13.962,13.962,0,0,1,88.423,18.258ZM36.5,42.565,47.269,63.258c.192.308.077.615-.231.615H40.346a.755.755,0,0,1-.808-.5C37.077,58.3,34.577,53.219,32,47.758h-.077c-2.308,5.154-4.846,10.577-7.308,15.654a.739.739,0,0,1-.692.423H17.577c-.385,0-.423-.308-.231-.538L27.885,43.219,17.692,22.912a.311.311,0,0,1,.231-.538h6.615a.606.606,0,0,1,.692.423c2.423,5.077,4.885,10.308,7.192,15.423H32.5c2.231-5.077,4.692-10.346,7.077-15.385.192-.308.308-.5.692-.5h6.192c.308,0,.423.231.231.538Zm12.654,6.269c0-8.962,5.962-15.962,15.423-15.962a17.056,17.056,0,0,1,2,.077V22.758a.385.385,0,0,1,.385-.385h6.077c.308,0,.385.115.385.308V57.988a27.394,27.394,0,0,0,.192,3.769c0,.231-.077.308-.308.423a22.91,22.91,0,0,1-9.846,2.231C55.115,64.45,49.154,59.3,49.154,48.835Zm17.423-9.846a5.817,5.817,0,0,0-2.231-.385c-4.846,0-8.231,3.731-8.231,9.923,0,7.077,3.462,9.923,7.808,9.923a7.256,7.256,0,0,0,2.654-.423V38.988Z"
     transform="translate(0 -0.45)"
     style="fill:#ffffff" />
</svg>
