<svg xmlns="http://www.w3.org/2000/svg" width="393.164" height="144.362" viewBox="0 0 393.164 144.362">
  <g id="Group_564" data-name="Group 564" transform="matrix(-0.982, 0.191, -0.191, -0.982, 423.488, 119.228)">
    <g id="Group_488" data-name="Group 488" transform="translate(17.678 17.678)">
      <path id="Path_202" data-name="Path 202" d="M0,28.014S39.5,81.591,130.938,80.35s102.737-32.7,94.835-57.456S152.507-2,155.16,42.573s121.008,42.615,154.16,12.12" transform="translate(70.67 34.224)" fill="none" stroke="#ffd500" stroke-linecap="round" stroke-width="10"/>
      <g id="Polygon_1" data-name="Polygon 1" transform="translate(0 50.306) rotate(-45)" fill="none">
        <path d="M34.709,1.477a1,1,0,0,1,1.727,0l33.829,57.88a1,1,0,0,1-.863,1.5H1.743a1,1,0,0,1-.863-1.5Z" stroke="none"/>
        <path d="M 35.57194137573242 19.8175048828125 L 17.42751312255859 50.86167144775391 L 53.71640777587891 50.86167144775391 L 35.57194137573242 19.8175048828125 M 35.57193756103516 0.9817466735839844 C 35.90710067749023 0.9817466735839844 36.24225997924805 1.146881103515625 36.43528747558594 1.477149963378906 L 70.26451110839844 59.35707092285156 C 70.65412902832031 60.02373123168945 70.17074584960938 60.86116409301758 69.40114593505859 60.86167144775391 L 1.742752075195312 60.86167144775391 C 0.9705886840820312 60.86169052124023 0.4897689819335938 60.02373123168945 0.8794097900390625 59.35707092285156 L 34.70858764648438 1.477149963378906 C 34.90161895751953 1.146881103515625 35.23677825927734 0.9817466735839844 35.57193756103516 0.9817466735839844 Z" stroke="none" fill="#ffd500"/>
      </g>
    </g>
  </g>
</svg>
