<svg width="37" height="41" viewBox="0 0 37 41" fill="none" xmlns="http://www.w3.org/2000/svg">
<path d="M34.7202 0H1.33477C0.535059 0 -0.0649161 0.676714 0.00563846 1.47633L3.05499 35.6478C3.12563 36.4468 3.81672 37.2831 4.59186 37.4991L16.6128 40.8382C17.3869 41.0528 18.6522 41.0542 19.4274 40.841L31.4632 37.5066C32.2385 37.2912 32.9296 36.4625 33.0002 35.6621L36.0508 1.47633C36.1214 0.676714 35.524 0 34.7202 0ZM28.9302 12.3349C28.9297 12.3402 28.9256 12.3443 28.9205 12.3451C28.9153 12.346 28.9102 12.3433 28.9079 12.3384L19.4899 16.1979C19.3557 16.2529 19.2792 16.3951 19.3071 16.5374C19.3352 16.6796 19.4599 16.7822 19.6049 16.7822H26.9307C27.3204 16.7822 27.6916 16.9477 27.9522 17.2375C28.2128 17.5273 28.338 17.9142 28.2966 18.3016L27.152 29.0392C27.0958 29.566 26.7418 30.0136 26.242 30.1894L18.4663 32.9254C18.1734 33.0285 17.8542 33.0293 17.5607 32.9276L9.82126 30.2467C9.31841 30.0725 8.96146 29.6236 8.90492 29.0945L8.38604 24.2316C8.35878 23.9763 8.44127 23.7214 8.61286 23.5306C8.78455 23.3396 9.02913 23.2306 9.28592 23.2306H11.4396C11.9024 23.2306 12.2905 23.5796 12.3395 24.0397L12.6578 27.0288L18.0166 28.8915L23.3999 27.0118L24.0583 20.8126H8.83742C8.37603 20.8126 7.9885 20.4654 7.93789 20.0068L7.64809 17.3794C7.60385 16.9787 7.82997 16.5971 8.2026 16.4435L17.9441 12.4272C18.0546 12.3816 18.1174 12.2645 18.0943 12.1472C18.071 12.0301 17.9683 11.9457 17.8489 11.9457H7.59243C7.28365 11.9457 7.02469 11.7125 6.99246 11.4055L6.69578 8.58153C6.67793 8.41159 6.73306 8.242 6.84743 8.11491C6.9618 7.98791 7.12477 7.91535 7.29567 7.91535H28.7564C28.9282 7.91535 29.0919 7.9887 29.2064 8.11683C29.3208 8.24504 29.3752 8.41594 29.3557 8.58667L28.9302 12.3349Z" fill="#FB9B2C"/>
</svg>
