<svg width="38" height="26" viewBox="0 0 38 26" fill="none" xmlns="http://www.w3.org/2000/svg">
<path d="M18.625 0H18.8309C20.7325 0.00694012 30.3676 0.0763417 32.9656 0.77498C33.7509 0.988201 34.4666 1.40381 35.041 1.98027C35.6155 2.55673 36.0285 3.27385 36.239 4.05997C36.4726 4.93905 36.6369 6.10268 36.7479 7.30332L36.7711 7.54391L36.822 8.14539L36.8405 8.38598C36.9908 10.5004 37.0093 12.4806 37.0117 12.9132V13.0868C37.0093 13.5355 36.9885 15.65 36.822 17.8523L36.8035 18.0952L36.7826 18.3358C36.667 19.659 36.4958 20.973 36.239 21.94C36.0292 22.7265 35.6163 23.4439 35.0418 24.0205C34.4673 24.597 33.7513 25.0124 32.9656 25.225C30.2821 25.9468 20.0824 25.9977 18.6689 26H18.3404C17.6256 26 14.6691 25.9861 11.5692 25.8797L11.1759 25.8658L10.9746 25.8566L10.5791 25.8404L10.1835 25.8242C7.61562 25.7108 5.17039 25.5281 4.04378 25.2227C3.25836 25.0103 2.54255 24.5953 1.96804 24.0192C1.39354 23.443 0.980516 22.726 0.770353 21.94C0.513569 20.9754 0.342379 19.659 0.226711 18.3358L0.208204 18.0929L0.189697 17.8523C0.0755261 16.2848 0.0122606 14.7139 0 13.1423L0 12.8577C0.00462675 12.3604 0.0231337 10.6415 0.148056 8.74455L0.164249 8.50627L0.17119 8.38598L0.189697 8.14539L0.240591 7.54391L0.263725 7.30332C0.374766 6.10268 0.539016 4.93674 0.772667 4.05997C0.982475 3.27353 1.39534 2.55607 1.96987 1.97951C2.5444 1.40295 3.2604 0.987561 4.04609 0.77498C5.1727 0.474242 7.61794 0.289171 10.1858 0.173503L10.5791 0.157309L10.977 0.143429L11.1759 0.136489L11.5715 0.120296C13.7731 0.0494477 15.9757 0.0101161 18.1785 0.00231348H18.625V0ZM14.8056 7.42593V18.5718L24.4223 13.0012L14.8056 7.42593Z" fill="white"/>
</svg>
