<svg width="37" height="41" viewBox="0 0 37 41" fill="none" xmlns="http://www.w3.org/2000/svg">
<path d="M1.13662 0C0.7598 0 0.479033 0.307075 0.512468 0.68239L3.68928 36.3156C3.72271 36.6909 4.04705 37.0805 4.41031 37.1813L17.8911 40.9243C18.2542 41.0252 18.8483 41.0252 19.2116 40.9246L32.7333 37.1754C33.0964 37.0747 33.4212 36.6852 33.4546 36.31L36.6366 0.68239C36.6703 0.307075 36.3893 0 36.0125 0H1.13662ZM29.8713 8.17237C29.8412 8.50712 29.7893 9.08825 29.7559 9.46356L29.6722 10.3985C29.6384 10.7737 29.5905 11.3103 29.5651 11.5908C29.5399 11.8714 29.5159 12.1009 29.5116 12.1009C29.5073 12.1009 29.1954 12.1009 28.8186 12.1009H19.2597C18.8829 12.1009 18.5714 12.1009 18.5673 12.1009C18.5632 12.1009 18.2514 12.1009 17.8746 12.1009H12.8403C12.4635 12.1009 12.1827 12.408 12.2161 12.7833L12.5098 16.0658C12.5432 16.4409 12.8791 16.7481 13.2559 16.7481H17.8748C18.2516 16.7481 18.5633 16.7481 18.5674 16.7481C18.5715 16.7481 18.883 16.7481 19.2598 16.7481H27.199C27.5758 16.7481 28.159 16.7481 28.4948 16.7481C28.8304 16.7481 29.0803 17.0221 29.0499 17.3568C29.0194 17.6916 28.9672 18.2728 28.9337 18.648L27.9895 29.2303C27.9558 29.6056 27.9132 30.085 27.8948 30.2958C27.876 30.5064 27.5637 30.7611 27.2006 30.8618L19.2349 33.0705C18.8718 33.1711 18.57 33.2544 18.5644 33.2557C18.5588 33.2569 18.2572 33.1754 17.8939 33.0747L9.91972 30.862C9.5566 30.7612 9.23212 30.3717 9.19868 29.9964L8.68538 24.2351C8.65195 23.8598 8.93299 23.5527 9.30981 23.5527H10.0376C10.4144 23.5527 11.031 23.5527 11.4078 23.5527H12.4931C12.8699 23.5527 13.2055 23.8598 13.2392 24.2351L13.4405 26.4904C13.4739 26.8657 13.7988 27.2531 14.1627 27.3514L17.8927 28.3586C18.2564 28.4569 18.5554 28.5373 18.557 28.5373C18.5587 28.5373 18.8575 28.4567 19.2213 28.3585L22.958 27.3487C23.3217 27.2505 23.6468 26.863 23.6806 26.4878L24.0857 21.9692C24.1194 21.5939 23.8387 21.2869 23.4619 21.2869H19.2598C18.883 21.2869 18.5715 21.2869 18.5674 21.2869C18.5633 21.2869 18.2516 21.2869 17.8748 21.2869H9.1066C8.72978 21.2869 8.3942 20.9796 8.36077 20.6045L7.36651 9.46343C7.33307 9.08811 7.28114 8.50712 7.25113 8.17223C7.2214 7.83748 7.50518 7.56356 7.882 7.56356H17.8748C18.2516 7.56356 18.5633 7.56356 18.5674 7.56356C18.5715 7.56356 18.883 7.56356 19.2598 7.56356H29.2405C29.6172 7.56356 29.9011 7.83748 29.8713 8.17237Z" fill="#FB9B2C"/>
</svg>
