<svg width="42" height="41" viewBox="0 0 42 41" fill="none" xmlns="http://www.w3.org/2000/svg">
<path d="M0.929688 20.4993C0.929688 28.6128 5.64496 35.626 12.4839 38.9482L2.70485 12.1569C1.56778 14.7063 0.929688 17.5275 0.929688 20.4993ZM35.2677 19.4653C35.2677 16.931 34.3574 15.1771 33.5776 13.8119C32.5386 12.1225 31.5646 10.6936 31.5646 9.00401C31.5646 7.11965 32.9926 5.36581 35.0064 5.36581C35.0977 5.36581 35.1842 5.37688 35.272 5.38248C31.6254 2.04071 26.7657 0 21.429 0C14.2673 0 7.96693 3.67497 4.30112 9.23908C4.78287 9.25493 5.23633 9.26477 5.62063 9.26477C7.76425 9.26477 11.0846 9.00415 11.0846 9.00415C12.1892 8.93909 12.3191 10.563 11.2152 10.6936C11.2152 10.6936 10.1043 10.8236 8.86961 10.888L16.3342 33.0933L20.8206 19.6389L17.6269 10.8878C16.5223 10.8235 15.4772 10.6935 15.4772 10.6935C14.3725 10.6279 14.5016 8.93896 15.607 9.00401C15.607 9.00401 18.9917 9.26463 21.006 9.26463C23.1498 9.26463 26.47 9.00401 26.47 9.00401C27.5746 8.93896 27.7053 10.5628 26.6006 10.6935C26.6006 10.6935 25.4884 10.8235 24.2551 10.8878L31.6629 32.9237L33.7077 26.0925C34.7472 23.4284 35.2677 21.2197 35.2677 19.4653ZM21.7893 22.2925L15.6382 40.165C17.4748 40.7049 19.4173 41 21.429 41C23.8167 41 26.1063 40.588 28.2368 39.8379C28.1828 39.75 28.1317 39.657 28.0903 39.5553L21.7893 22.2925ZM39.4176 10.6652C39.506 11.3176 39.5559 12.0179 39.5559 12.7729C39.5559 14.8523 39.1659 17.1908 37.9963 20.115L31.7353 38.2177C37.8304 34.6644 41.9283 28.0619 41.9283 20.4995C41.9283 16.9351 41.0172 13.5844 39.4176 10.6652Z" fill="#FB9B2C"/>
</svg>
