<svg width="80" height="78" viewBox="0 0 80 78" fill="none" xmlns="http://www.w3.org/2000/svg">
<path d="M26.041 70.7341C25.565 67.541 25.2152 64.3237 24.5682 61.1585C24.1842 59.2798 23.5302 57.4769 23.1243 55.607C22.864 54.4076 22.4399 53.167 22.0826 51.9716C19.6334 43.7785 16.8598 35.3914 11.1114 28.8656C10.0334 27.6418 8.52046 26.2722 7.76635 24.8181C6.89027 23.1288 7.59834 25.0827 7.94877 25.7841C10.3953 30.6809 13.6562 34.9266 17.4364 38.8685C19.78 41.3123 22.3751 43.4681 24.9289 45.6828C26.5332 47.0741 28.0674 48.5493 29.787 49.7997C30.1786 50.0845 31.025 50.9697 31.6148 50.4759C32.289 49.9113 32.3857 48.5086 32.5121 47.718C32.8679 45.4926 33.3745 43.2939 33.7913 41.0799C34.9077 35.149 34.8101 29.3705 33.2263 23.5222C32.0531 19.19 29.4498 16.0784 26.3767 12.9058C25.7169 12.2247 24.9847 11.5453 24.4548 10.7523C24.2579 10.4576 24.1871 10.3022 24.272 10.7912C24.5814 12.5747 25.1298 14.2904 25.7398 15.9907C26.7171 18.7143 27.6086 21.442 28.8732 24.0506C31.4444 29.3546 35.0202 34.3003 38.4314 39.0935C41.6768 43.6538 45.0408 48.0875 48.768 52.2627C49.5438 53.1317 51.1145 55.7657 52.6392 55.2324C53.6825 54.8674 54.1468 53.9341 54.6578 53.0235C56.0035 50.6254 56.9377 47.9492 57.7922 45.3463C60.6349 36.6868 61.5606 27.2878 61.3049 18.2116C61.2284 15.4948 60.7931 12.8226 60.3395 10.1474C60.0618 8.50938 59.6586 6.9173 58.7879 5.48836C58.7552 5.43464 57.3713 3.09166 57.143 3.63932C56.0958 6.15104 56.8935 9.56619 57.166 12.1607C57.7262 17.4962 58.7575 22.8035 59.5943 28.1011C60.5341 34.0509 62.0563 39.8888 64.4971 45.4112C66.4045 49.7269 69.0616 54.5942 72.3588 58.0264C73.4475 59.1596 74.61 60.3405 75.9179 61.2243C76.6223 61.7003 76.7511 61.7147 75.9827 61.1942C74.1092 59.925 71.3034 59.6415 69.1576 59.298C63.4391 58.3824 57.5424 58.6818 51.8037 59.2638C45.4966 59.9033 39.226 61.1311 32.9666 62.1198C27.9571 62.9111 22.8618 63.5856 17.9616 64.9277C13.1329 66.2501 8.09666 68.3951 4.34981 71.8327C3.68411 72.4434 2.77206 73.4438 4.13539 73.8759C5.46452 74.2973 7.00952 74.2967 8.38642 74.3385C11.6895 74.4387 14.9427 73.9856 18.2083 73.5431C23.1236 72.877 28.0247 71.9527 32.8726 70.9084" stroke="#FC9B2C" stroke-width="5.93156" stroke-linecap="round"/>
</svg>
