<svg width="47" height="41" viewBox="0 0 47 41" fill="none" xmlns="http://www.w3.org/2000/svg">
<path d="M23.1059 16.3911C20.8343 16.3911 18.9844 18.2358 18.9844 20.501C18.9844 22.7662 20.8343 24.6109 23.1059 24.6109C25.3775 24.6109 27.2275 22.7662 27.2275 20.501C27.2275 18.2358 25.3775 16.3911 23.1059 16.3911ZM11.5674 28.6689L10.6576 28.4443C3.88757 26.7335 0 23.839 0 20.4938C0 17.1486 3.88902 14.2541 10.6576 12.5433L11.5674 12.3187L11.823 13.2187C12.5075 15.5732 13.387 17.8686 14.4484 20.0891L14.6434 20.4938L14.4484 20.9056C13.3884 23.1175 12.5075 25.413 11.823 27.7761L11.5674 28.6689ZM10.2374 14.6429C5.09197 16.0829 1.93368 18.2948 1.93368 20.4938C1.93368 22.6927 5.09341 24.896 10.2374 26.3447C10.8699 24.3416 11.6295 22.3918 12.5162 20.4938C11.6281 18.5958 10.8685 16.646 10.2374 14.6429V14.6429ZM34.6445 28.6689L34.3888 27.7689C33.7043 25.4144 32.8249 23.119 31.7634 20.9056L31.5685 20.4938L31.7634 20.0819C32.8234 17.87 33.7043 15.5746 34.3888 13.2115L34.6445 12.3187L35.5543 12.5433C42.3243 14.2541 46.2119 17.1486 46.2119 20.4938C46.2119 23.839 42.3228 26.7335 35.5543 28.4443L34.6445 28.6689ZM33.6957 20.4938C34.6214 22.4882 35.3882 24.4467 35.9745 26.3447C41.1271 24.8974 44.2782 22.6927 44.2782 20.4938C44.2782 18.2948 41.1184 16.0916 35.9745 14.6429C35.342 16.6373 34.5824 18.5958 33.6957 20.4938V20.4938ZM10.2215 14.6357L9.96588 13.7357C8.06253 7.04521 8.64162 2.24555 11.553 0.572219C14.4109 -1.07087 18.9916 0.871748 23.7977 5.79238L24.4519 6.46056L23.7977 7.12874C22.0907 8.89855 20.534 10.8037 19.1346 12.8284L18.8718 13.1956L18.4198 13.2331C15.9604 13.4275 13.5227 13.8177 11.1313 14.4038L10.2215 14.6357ZM13.8766 1.90858C13.3581 1.90858 12.8989 2.0137 12.5148 2.23835C10.6042 3.34142 10.2663 7.16618 11.5818 12.3259C13.6354 11.8679 15.7106 11.5454 17.8103 11.3581C19.0133 9.64737 20.3376 8.01292 21.7586 6.47496C18.7577 3.55743 15.9142 1.90714 13.8766 1.90714V1.90858ZM32.3425 40.9986C32.3353 40.9986 32.3353 40.9986 32.3425 40.9986C29.5973 40.9986 26.0693 38.9436 22.4142 35.1937L21.76 34.5256L22.4142 33.8574C24.1211 32.0876 25.6779 30.1824 27.0773 28.1577L27.3329 27.7905L27.7849 27.7458C30.2442 27.5586 32.6819 27.1684 35.0806 26.5751L35.9904 26.3504L36.246 27.2505C38.1493 33.9409 37.5702 38.7334 34.6589 40.4053C33.9513 40.8099 33.1541 41.013 32.3425 40.9971V40.9986ZM24.4519 34.5112C27.4527 37.4287 30.2962 39.079 32.3339 39.079H32.3411C32.8523 39.079 33.3115 38.9667 33.6957 38.7492C35.6062 37.6461 35.9528 33.8214 34.6286 28.6617C32.575 29.1196 30.4912 29.4422 28.4001 29.6222C27.1971 31.3402 25.8729 32.9674 24.4519 34.5126V34.5112ZM35.9904 14.6357L35.0806 14.4038C32.6819 13.8192 30.2442 13.4289 27.7849 13.2331L27.3329 13.1956L27.0773 12.8284C25.6779 10.8037 24.1211 8.89855 22.4142 7.12874L21.76 6.46056L22.4142 5.79238C27.2202 0.871748 31.801 -1.07087 34.6589 0.572219C37.5702 2.24411 38.1493 7.04521 36.246 13.7357L35.9904 14.6357ZM28.4015 11.3581C30.598 11.5612 32.6891 11.8838 34.63 12.3259C35.9543 7.16618 35.6077 3.33998 33.6971 2.23835C31.7938 1.14392 28.2138 2.82301 24.4533 6.4764C25.8743 8.02156 27.1913 9.64881 28.4015 11.3596V11.3581ZM13.8766 40.9986C13.0635 41.013 12.2591 40.8114 11.553 40.4067C8.64162 38.7348 8.06253 33.9409 9.96588 27.2519L10.2215 26.3519L11.1313 26.5765C13.3581 27.1396 15.8102 27.5284 18.4198 27.7473L18.8718 27.7919L19.1274 28.1591C20.5267 30.1838 22.0835 32.089 23.7904 33.8588L24.4446 34.527L23.7904 35.1952C20.1426 38.9451 16.6146 41 13.8766 41V40.9986ZM11.5833 28.6617C10.259 33.8214 10.6056 37.6476 12.5162 38.7492C14.4195 39.8292 17.9923 38.1646 21.76 34.5112C20.339 32.966 19.0147 31.3387 17.8118 29.6208C15.7135 29.4408 13.6368 29.1182 11.5833 28.6603V28.6617ZM23.1059 29.8685C21.5188 29.8685 19.8942 29.8008 18.2624 29.6654L17.8103 29.628L17.5475 29.2536C16.6305 27.933 15.7568 26.5765 14.9524 25.1811C14.1394 23.7857 13.3957 22.3615 12.7039 20.9056L12.509 20.4938L12.7039 20.0819C13.3957 18.6275 14.1408 17.2018 14.9524 15.8064C15.7496 14.4341 16.6218 13.0617 17.5475 11.734L17.8103 11.3596L18.2624 11.3221C21.4885 11.0514 24.7306 11.0514 27.9495 11.3221L28.4015 11.3596L28.6644 11.734C30.5071 14.3736 32.1317 17.1716 33.5079 20.0819L33.7029 20.4938L33.5079 20.9056C32.1317 23.816 30.5143 26.614 28.6644 29.2536L28.4015 29.628L27.9495 29.6654C26.3249 29.8008 24.693 29.8685 23.1059 29.8685ZM18.879 27.7833C21.7225 28.0007 24.4894 28.0007 27.3401 27.7833C28.9272 25.4662 30.341 23.0283 31.567 20.4923C30.3482 17.9579 28.9344 15.5199 27.3329 13.2014C24.5197 12.984 21.6921 12.984 18.879 13.2014C17.2775 15.5184 15.8622 17.9564 14.6448 20.4923C15.8709 23.0268 17.2847 25.4648 18.879 27.7833V27.7833Z" fill="#FC9B2C"/>
</svg>
