<svg width="43" height="45" viewBox="0 0 43 45" fill="none" xmlns="http://www.w3.org/2000/svg">
<path d="M16.1051 38.9864C15.5429 37.3929 15.5365 37.1956 14.8891 35.6335C14.5049 34.7063 13.9895 33.8449 13.5949 32.9245C13.3418 32.3341 13.0004 31.7388 12.6979 31.1601C10.6242 27.1937 8.36454 23.1598 4.76147 20.3784C4.08579 19.8568 3.17208 19.3036 2.63991 18.6314C2.02166 17.8505 2.5799 18.7841 2.82975 19.1096C4.57408 21.3825 6.67211 23.2397 9.0068 24.8892C10.4542 25.9118 12.0022 26.7614 13.5348 27.6453C14.4976 28.2006 15.4327 28.806 16.4408 29.2775C16.6703 29.3848 17.1933 29.7555 17.4472 29.4431C17.7375 29.0859 17.6476 28.3555 17.6339 27.9367C17.5954 26.7577 17.637 25.5775 17.6308 24.3984C17.6145 21.2397 16.9894 18.2801 15.5937 15.4325C14.5598 13.3231 12.9126 11.9832 11.0178 10.6587C10.611 10.3743 10.1672 10.0981 9.81597 9.74329C9.68544 9.61143 9.63361 9.5386 9.72587 9.78144C10.0623 10.6671 10.5148 11.4942 10.9974 12.3072C11.7706 13.6095 12.5001 14.9225 13.4094 16.1371C15.2583 18.6068 17.5878 20.7924 19.8176 22.916C21.9389 24.9365 24.1086 26.8801 26.4393 28.6547C26.9244 29.0241 27.9935 30.2213 28.724 29.7955C29.2238 29.5042 29.3695 28.9784 29.5415 28.4597C29.9944 27.0935 30.2082 25.6254 30.3883 24.2028C30.9875 19.4703 30.5281 14.5485 29.4937 9.91004C29.1841 8.52161 28.6946 7.19181 28.1953 5.86228C27.8896 5.0482 27.5241 4.27021 26.9345 3.62257C26.9123 3.59822 25.9681 2.53195 25.9053 2.83608C25.6171 4.23093 26.3667 5.90646 26.7649 7.21257C27.5836 9.89849 28.6415 12.5231 29.5986 15.162C30.6735 18.1259 32.0365 20.9743 33.8401 23.5691C35.2496 25.597 37.0992 27.8337 39.135 29.2693C39.8072 29.7433 40.4276 29.8858 41.1876 30.2098M41.1876 30.2098C41.5969 30.3844 41.6342 30.4009 41.1876 30.2098ZM41.1876 30.2098C40.0986 29.7441 38.7533 30.2043 37.6165 30.2412C34.587 30.3397 31.5867 31.0802 28.6957 31.9502C25.5184 32.9063 22.4184 34.1611 19.3003 35.2919C16.8049 36.1969 14.2538 37.0505 11.8693 38.2276C9.51961 39.3876 7.14511 40.9908 5.56178 43.13" stroke="white" stroke-width="3.66379" stroke-linecap="round"/>
</svg>
