<svg width="42" height="41" viewBox="0 0 42 41" fill="none" xmlns="http://www.w3.org/2000/svg">
<path d="M0.199219 0V41H41.3759V0H0.199219ZM22.6082 31.9756C22.6082 35.9658 20.2552 37.7874 16.8273 37.7874C13.7302 37.7874 11.9375 36.1957 11.0184 34.2643L14.1714 32.3695C14.7787 33.4399 15.3302 34.3463 16.6626 34.3463C17.9302 34.3463 18.739 33.8514 18.739 31.9214V18.8249H22.6082V31.9756ZM31.7612 37.7874C28.167 37.7874 25.842 36.0859 24.7111 33.8514L27.8641 32.04C28.692 33.3857 29.7759 34.3829 31.6788 34.3829C33.2774 34.3829 34.3083 33.5863 34.3083 32.4793C34.3083 31.1615 33.2597 30.6944 31.4862 29.9168L30.5215 29.5054C27.7273 28.3251 25.8803 26.833 25.8803 23.6936C25.8803 20.8016 28.095 18.6052 31.5421 18.6052C34.0053 18.6052 35.77 19.456 37.0392 21.689L34.0244 23.6116C33.3627 22.4314 32.645 21.9643 31.5332 21.9643C30.4038 21.9643 29.6862 22.6789 29.6862 23.6116C29.6862 24.7655 30.4038 25.2311 32.0671 25.9545L33.0318 26.3659C36.323 27.7658 38.17 29.2037 38.17 32.4237C38.17 35.8838 35.4303 37.7859 31.7626 37.7859L31.7612 37.7874Z" fill="#FB9B2C"/>
</svg>
