<svg width="83" height="41" viewBox="0 0 83 41" fill="none" xmlns="http://www.w3.org/2000/svg">
<path d="M7.38673 8.62451H19.488C23.0399 8.65433 25.6137 9.67839 27.2094 11.695C28.8051 13.7116 29.3316 16.466 28.7898 19.9582C28.5794 21.5539 28.1125 23.119 27.39 24.6542C26.6974 26.1895 25.7346 27.5739 24.5002 28.8084C22.9947 30.3735 21.3845 31.3669 19.6687 31.7886C17.9528 32.2103 16.1765 32.4207 14.3405 32.4207H8.92197L7.20611 41H0.929688L7.38673 8.62451M12.6698 13.7721L9.96052 27.3183C10.1411 27.3481 10.3217 27.3635 10.5024 27.3635C10.7128 27.3635 10.9241 27.3635 11.1345 27.3635C14.0244 27.3933 16.4329 27.1079 18.3592 26.5056C20.2855 25.8734 21.5805 23.6762 22.2424 19.913C22.7843 16.7523 22.2424 14.9308 20.6169 14.4494C19.0212 13.968 17.0199 13.7423 14.6114 13.7721C14.2502 13.8019 13.9043 13.8172 13.5728 13.8172C13.2721 13.8172 12.956 13.8172 12.6246 13.8172L12.6698 13.7721" fill="#FB9B2C"/>
<path d="M35.9397 0H42.171L40.41 8.62444H46.0091C49.0796 8.68493 51.3671 9.31709 52.8725 10.5209C54.4077 11.7247 54.8593 14.0131 54.2271 17.3843L51.2018 32.4207H44.8802L47.7701 18.0617C48.0708 16.5562 47.9805 15.4879 47.4992 14.8557C47.0178 14.2236 45.9793 13.9075 44.3835 13.9075L39.3714 13.8623L35.6688 32.4207H29.4375L35.9397 0Z" fill="#FB9B2C"/>
<path d="M60.918 8.62451H73.0193C76.5711 8.65433 79.1449 9.67839 80.7406 11.695C82.3364 13.7116 82.8629 16.466 82.321 19.9582C82.1106 21.5539 81.6437 23.119 80.9213 24.6542C80.2286 26.1895 79.2659 27.5739 78.0314 28.8084C76.526 30.3735 74.9158 31.3669 73.1999 31.7886C71.4841 32.2103 69.7077 32.4207 67.8717 32.4207H62.4532L60.7374 41H54.4609L60.918 8.62451M66.201 13.7721L63.4918 27.3183C63.6724 27.3481 63.853 27.3635 64.0336 27.3635C64.2441 27.3635 64.4553 27.3635 64.6658 27.3635C67.5556 27.3933 69.9641 27.1079 71.8904 26.5056C73.8167 25.8734 75.1117 23.6762 75.7737 19.913C76.3155 16.7523 75.7737 14.9308 74.1481 14.4494C72.5524 13.968 70.5511 13.7423 68.1426 13.7721C67.7814 13.8019 67.4355 13.8172 67.1041 13.8172C66.8034 13.8172 66.4873 13.8172 66.1559 13.8172L66.201 13.7721" fill="#FB9B2C"/>
</svg>
