<svg width="41" height="41" viewBox="0 0 41 41" fill="none" xmlns="http://www.w3.org/2000/svg">
<path d="M34.1667 0H6.83333C3.06304 0.01025 0.01025 3.06304 0 6.83333V34.1667C0 37.925 3.075 41 6.83333 41H34.1667C37.925 41 41 37.925 41 34.1667V6.83333C41 3.075 37.925 0 34.1667 0ZM30.4305 28.794C30.0889 29.6174 29.5473 30.3434 28.8537 30.902C28.1362 31.4829 27.2274 31.9612 26.1085 32.3029C24.9912 32.6497 23.6621 32.8239 22.1229 32.8239H11.1349V8.90725H22.755C24.9041 8.90725 26.6261 9.39071 27.9142 10.3764C29.2125 11.3673 29.8583 12.8433 29.8583 14.8352C29.8583 16.0395 29.5644 17.0731 28.9733 17.9273C28.3857 18.7763 27.5383 19.4408 26.445 19.9021V19.9807C27.9039 20.2882 29.0331 20.98 29.7763 22.0563C30.5194 23.1325 30.9003 24.4924 30.9003 26.1341C30.9003 27.0532 30.7227 27.9278 30.3878 28.7444L30.4305 28.7905V28.794ZM25.6882 22.9002C24.9878 22.2596 24.0038 21.947 22.7328 21.947H15.3494V29.409H22.7533C24.0175 29.409 25.0083 29.081 25.7087 28.4181C26.4091 27.7604 26.7679 26.8225 26.7679 25.6165C26.7559 24.4377 26.4091 23.5255 25.7087 22.9002H25.6797H25.6882ZM24.6632 18.0776C25.3397 17.5036 25.6711 16.6819 25.6711 15.6107C25.6711 14.4081 25.3722 13.5539 24.7657 13.0653C24.1644 12.5785 23.2965 12.3256 22.1554 12.3256H15.322V18.9249H22.1554C23.1513 18.9249 24.0004 18.6345 24.6564 18.0776H24.6632Z" fill="#FC9B2C"/>
</svg>
